<?xml version="1.0" encoding="utf-8"?>
<!-- Generator: Adobe Illustrator 24.1.1, SVG Export Plug-In . SVG Version: 6.00 Build 0)  -->
<svg version="1.1" id="Layer_1" xmlns="http://www.w3.org/2000/svg" xmlns:xlink="http://www.w3.org/1999/xlink" x="0px" y="0px"
	 viewBox="0 0 292 280" style="enable-background:new 0 0 292 280;" xml:space="preserve">
<style type="text/css">
	.st0{fill:#EBA13D;}
</style>
<g>
	<path class="st0" d="M60.39,101.64c0.15-0.18,0.29-0.36,0.43-0.55c0.32-0.46,0.61-0.95,0.85-1.47c0.27-0.59,0.51-1.2,0.69-1.82
		c0.18-0.61,0.33-1.23,0.46-1.88c0.02-0.11,0.04-0.21,0.06-0.3c0.05-0.16,0.07-0.31,0.08-0.44c0.03-0.49,0-1.01-0.09-1.53
		c-0.1-0.82-0.22-1.63-0.37-2.42c-0.13-0.72-0.17-1.48-0.09-2.26l-0.04-0.26c-0.09-0.22-0.18-0.43-0.28-0.61
		c-0.03-0.05-0.05-0.1-0.07-0.15c0.1-0.25,0.14-0.52,0.11-0.79c-0.03-0.29-0.1-0.57-0.21-0.84c-0.1-0.25-0.2-0.48-0.3-0.69
		c-0.08-0.17-0.1-0.27-0.12-0.44c0-0.08,0-0.17,0-0.24c0-0.24-0.01-0.47-0.03-0.69c-0.02-0.22-0.04-0.43-0.07-0.66
		c-0.11-0.83-0.32-1.65-0.61-2.42c-0.27-0.72-0.56-1.43-0.87-2.13c-0.01-0.07-0.04-0.12-0.09-0.14l0.46-0.36l-0.94-1.14
		c-0.23-0.28-0.55-0.52-0.99-0.72l-0.29-0.05c-0.67,0.04-1.2,0.38-1.58,0.99l-0.1,0.17l0.03,0.2c0.04,0.3,0.08,0.57,0.14,0.81
		c0.03,0.12,0.01,0.29-0.06,0.48l-0.11,0.33l0.25,0.26c0.07,0.07,0.13,0.13,0.21,0.2c0,0.42,0.05,0.82,0.15,1.22
		c0.11,0.42,0.23,0.84,0.36,1.26c0.12,0.4,0.22,0.79,0.29,1.19c0.06,0.34,0.05,0.7-0.04,1.07l-0.07,0.28l0.18,0.22
		c0.07,0.09,0.11,0.18,0.11,0.29c0,0.19-0.03,0.37-0.08,0.55l-0.06,0.21l0.09,0.2c0.07,0.16,0.15,0.3,0.21,0.41l-0.53,0.18L58,87.76
		c0.09,0.11,0.18,0.2,0.25,0.28c-0.02,0.42-0.01,0.84,0.03,1.26l0.14,1.18c0.05,0.37,0.09,0.76,0.12,1.15
		c0.03,0.35,0.02,0.71-0.04,1.05l-0.02,0.15l0.06,0.14c0.05,0.13,0.12,0.29,0.2,0.46l0.05,0.16c0,0.06,0,0.13-0.01,0.21
		c-0.01,0.12-0.02,0.23-0.02,0.27c-0.04,0.31-0.1,0.62-0.15,0.91c-0.06,0.3-0.09,0.61-0.08,0.92c-0.14,0.28-0.25,0.5-0.31,0.68
		c-0.07,0.2-0.12,0.45-0.16,0.76c-0.01,0.01-0.01,0.02-0.02,0.03c-0.37,0.52-0.83,0.98-1.38,1.35c-0.58,0.4-1.23,0.64-1.9,0.72
		c-0.19,0.01-0.43-0.01-0.74-0.06c-0.33-0.05-0.67-0.13-1.01-0.21c-0.34-0.09-0.67-0.19-0.98-0.3c-0.31-0.11-0.58-0.22-0.81-0.32
		c-0.32-0.15-0.64-0.31-0.96-0.49c-0.29-0.17-0.55-0.37-0.79-0.62l-0.12-0.13l-0.18-0.04c-0.07-0.02-0.15-0.04-0.22-0.07
		c-0.08-0.03-0.16-0.06-0.22-0.09c-0.45-0.2-0.86-0.48-1.21-0.81c-0.4-0.38-0.8-0.77-1.21-1.18l-0.1-0.1l-0.14-0.05
		c-0.24-0.08-0.49-0.22-0.74-0.41c-0.26-0.2-0.46-0.4-0.59-0.6l-0.1-0.15l-0.32-0.14c-0.49-0.22-0.95-0.51-1.36-0.85
		c-0.45-0.38-0.92-0.75-1.41-1.12c-0.18-0.12-0.36-0.24-0.53-0.35c-0.16-0.1-0.33-0.21-0.53-0.35l-0.37-0.21
		c-0.04-0.1-0.09-0.2-0.17-0.3l-0.12-0.18l-0.21-0.06c-0.18-0.05-0.34-0.13-0.5-0.23c-0.2-0.13-0.39-0.26-0.59-0.41
		c-0.21-0.16-0.42-0.31-0.63-0.46c-0.23-0.16-0.49-0.31-0.76-0.43l-0.26-0.12c-0.07-0.03-0.15-0.06-0.22-0.08
		c-0.2-0.2-0.42-0.39-0.65-0.55c-0.28-0.19-0.57-0.37-0.86-0.52l-0.82-0.46c-0.23-0.14-0.45-0.31-0.64-0.49l-0.19-0.19l-0.27,0.01
		c-0.41,0.02-0.79,0.08-1.13,0.19c-0.19,0.06-0.43,0.06-0.71,0.01l-0.3-0.06l-0.22,0.2c-0.1,0.09-0.19,0.19-0.27,0.3
		c-0.07,0.09-0.14,0.21-0.2,0.33c-0.17,0.36-0.25,0.74-0.25,1.13c0,0.33,0.02,0.65,0.05,0.97l0.03,0.33l0.31,0.15
		c0.94,0.45,1.87,0.92,2.78,1.41c0.9,0.49,1.79,1.02,2.64,1.58l0.83,0.57c0.28,0.2,0.55,0.39,0.76,0.55l0.35,0.31
		c0.19,0.17,0.35,0.28,0.49,0.34c0.18,0.08,0.35,0.12,0.6,0.15c0.04,0.02,0.1,0.07,0.18,0.13c0.12,0.1,0.24,0.21,0.37,0.33
		c0.13,0.13,0.25,0.25,0.36,0.37c0.08,0.08,0.14,0.14,0.16,0.18l0.11,0.17l0.19,0.07c0.2,0.08,0.4,0.18,0.59,0.3
		c0.22,0.15,0.43,0.3,0.64,0.46l0.68,0.52c0.22,0.16,0.44,0.31,0.74,0.45c0.09,0.19,0.23,0.36,0.42,0.53l0.03,0.34l0.32,0.15
		c0.32,0.14,0.6,0.33,0.86,0.57c0.35,0.32,0.71,0.57,1.08,0.73c0.12,0.05,0.24,0.08,0.34,0.08c0.13,0.16,0.28,0.3,0.46,0.43
		c0.21,0.15,0.38,0.31,0.5,0.46l0.09,0.11l0.13,0.06c0.51,0.23,1.01,0.49,1.49,0.76c0.52,0.3,1.05,0.57,1.6,0.82
		c0.44,0.2,0.89,0.36,1.34,0.48c0.38,0.1,0.79,0.16,1.22,0.19c0.07,0.06,0.15,0.11,0.24,0.15c0.09,0.04,0.17,0.07,0.34,0.12
		l0.5,0.77l0.4-0.85c0.08,0.02,0.15,0.04,0.21,0.06c0.13,0.04,0.28,0.07,0.4,0.08c0.56,0.06,1.11,0,1.62-0.18
		c0.39-0.14,0.8-0.24,1.21-0.31l0.24-0.04l0.14-0.19c0.02-0.04,0.05-0.07,0.07-0.11c0.37-0.04,0.65-0.18,0.84-0.31
		c0.25-0.18,0.47-0.4,0.67-0.67c0.04-0.01,0.09-0.03,0.13-0.05L60.1,102L60.39,101.64z"/>
	<path class="st0" d="M80.63,74.83c0.03-0.52,0.05-1.04,0.06-1.55c0.01-0.44,0-0.89-0.04-1.34c0.05-0.07,0.09-0.13,0.11-0.2l0.2,0
		l-0.08-0.64c-0.06-0.49-0.11-0.96-0.14-1.41c-0.02-0.36,0.05-0.74,0.23-1.13l0.07-0.4l-0.15-0.26c-0.01-0.07-0.02-0.15-0.03-0.23
		c0.07-0.31,0.15-0.63,0.25-0.95c0.1-0.35,0.22-0.7,0.36-1.05l0.08-0.22l-0.09-0.22c-0.07-0.16-0.1-0.32-0.1-0.48
		c0.01-0.2,0.03-0.39,0.08-0.57c0.05-0.21,0.11-0.42,0.18-0.64c0.08-0.26,0.15-0.51,0.2-0.82c0.01-0.11,0.01-0.25,0-0.41l-0.02-0.39
		c0-0.07-0.01-0.14-0.02-0.17l0.57-0.62l-0.62-0.37c-0.32-0.19-0.62-0.41-0.91-0.64c-0.39-0.32-0.85-0.53-1.37-0.62l-0.55-0.06
		l-0.15,0.51c-0.04,0.05-0.08,0.1-0.13,0.15c-0.19,0.2-0.38,0.38-0.6,0.56l-1.08,0.9l0.28,0.43c0.09,0.14,0.17,0.29,0.22,0.43
		c0.03,0.07,0.05,0.14,0.07,0.21c-0.07,0.1-0.1,0.19-0.12,0.28l-0.26,0l0.07,0.63c0.07,0.61,0.07,1.22-0.01,1.82
		c-0.08,0.65-0.16,1.3-0.23,1.97l-0.05,0.65c-0.02,0.25-0.02,0.48-0.01,0.69l0.01,0.46l-0.57,0.22l0.41,0.6
		c0.14,0.2,0.12,0.32,0.12,0.36c-0.03,0.27,0.01,0.53,0.13,0.79c-0.07,0.15-0.11,0.3-0.13,0.45c-0.03,0.24-0.03,0.48,0.02,0.73
		c0.04,0.21,0.1,0.41,0.17,0.61c0.02,0.06,0.04,0.13,0.06,0.19l-0.29,0.31l-0.02,0.18c-0.08,0.61-0.1,1.24-0.05,1.87
		c0.04,0.57,0.06,1.14,0.04,1.7c-0.02,0.53-0.09,1.05-0.23,1.55c-0.13,0.45-0.39,0.89-0.77,1.3c-0.04,0.04-0.08,0.08-0.12,0.12
		c-0.34-0.12-0.69-0.18-1.05-0.19c-0.32-0.01-0.6-0.08-0.9-0.25c-0.27-0.13-0.53-0.29-0.79-0.48l-0.86-0.62
		c-0.29-0.21-0.59-0.41-0.89-0.6c-0.26-0.17-0.53-0.31-0.8-0.43c-0.45-0.67-1-1.35-1.64-2.02c-0.67-0.69-1.33-1.39-2-2.1
		c-0.65-0.69-1.24-1.4-1.77-2.11c-0.45-0.6-0.76-1.24-0.95-1.9c0.09-0.2,0.16-0.42,0.2-0.64l0.12-0.71
		c0.04-0.21,0.09-0.42,0.14-0.62c0.04-0.13,0.11-0.25,0.23-0.37c0.03-0.03,0.09-0.08,0.2-0.15l0.37-0.24l-0.13-0.42
		c-0.02-0.06-0.07-0.24,0.09-0.54c0.16-0.29,0.32-0.54,0.48-0.71l0.57-0.37l-0.19-0.47c-0.03-0.07-0.02-0.12-0.01-0.15
		c0.05-0.15,0.12-0.29,0.2-0.43c0.12-0.2,0.21-0.41,0.29-0.62c0.06-0.16,0.09-0.34,0.08-0.51c0.01-0.01,0.02-0.02,0.03-0.03
		c0.32-0.34,0.54-0.73,0.63-1.15c0.05-0.23,0.15-0.42,0.38-0.63l0.58-0.23l-0.27-0.57c0.02-0.07,0.04-0.15,0.09-0.25l0.19-0.42
		c0.06-0.14,0.1-0.28,0.11-0.42c0.37-0.48,0.67-1.02,0.92-1.59c0.25-0.59,0.49-1.18,0.71-1.78c0.21-0.57,0.45-1.12,0.71-1.67
		c0.24-0.51,0.57-0.98,0.97-1.4L72.07,52l-0.33-0.39c0-0.08,0-0.17,0-0.27c0.01-0.15,0-0.29-0.01-0.44
		c-0.02-0.2-0.11-0.41-0.24-0.61l-0.14-0.21l-0.25-0.05c-0.18-0.03-0.35-0.09-0.52-0.16c-0.24-0.1-0.49-0.17-0.74-0.23
		c-0.28-0.06-0.56-0.07-0.84-0.03c-0.33,0.04-0.64,0.2-0.92,0.45l-0.19,0.17l0,0.25c0,0.14-0.03,0.26-0.09,0.38
		c-0.09,0.18-0.18,0.34-0.29,0.51c-0.13,0.2-0.26,0.4-0.38,0.62c-0.11,0.2-0.19,0.41-0.24,0.62l0,0c-0.07,0.06-0.14,0.12-0.21,0.2
		c-0.15,0.16-0.26,0.33-0.34,0.51c-0.06,0.14-0.09,0.28-0.09,0.43c-0.24,0.27-0.46,0.59-0.62,0.97c-0.15,0.35-0.27,0.68-0.35,0.99
		c-0.09,0.06-0.18,0.14-0.27,0.23c-0.22,0.24-0.37,0.54-0.45,0.88c-0.05,0.22-0.08,0.44-0.1,0.65c-0.33,0.49-0.62,1.01-0.87,1.53
		c-0.27,0.57-0.5,1.14-0.71,1.73l-0.22,0.66c-0.07,0.2-0.14,0.38-0.24,0.57c-0.22,0.5-0.59,0.94-0.77,1.38
		c-0.25,0.49-0.48,0.99-0.69,1.49c-0.11,0.26-0.22,0.51-0.34,0.76c-0.27-0.24-0.54-0.52-0.81-0.82c-0.23-0.27-0.41-0.56-0.52-0.87
		l-1.05-1.03c-0.32-0.71-0.73-1.39-1.22-2c-0.42-0.53-0.83-1.08-1.2-1.64c0.19-0.89,0.46-1.76,0.79-2.6c0.38-0.95,0.75-1.9,1.1-2.86
		c0.18-0.5,0.34-0.99,0.48-1.47c0.12-0.41,0.24-0.82,0.37-1.22c0.1-0.05,0.21-0.12,0.32-0.24l0.21-0.22l-0.07-0.3
		c-0.01-0.06-0.01-0.12,0.01-0.19c0.04-0.14,0.09-0.29,0.15-0.43c0.07-0.18,0.13-0.36,0.19-0.53c0.05-0.16,0.08-0.31,0.09-0.47
		c0.23-0.34,0.41-0.71,0.54-1.09c0.13-0.39,0.25-0.78,0.36-1.18c0.1-0.38,0.22-0.75,0.34-1.12c0.11-0.32,0.27-0.61,0.47-0.88
		l0.16-0.21l-0.06-0.26c-0.03-0.14-0.02-0.28,0.03-0.42c0.08-0.22,0.18-0.44,0.3-0.67c0.14-0.27,0.27-0.53,0.38-0.79
		c0.11-0.26,0.17-0.53,0.18-0.79c0.14-0.2,0.25-0.4,0.34-0.62c0.1-0.25,0.19-0.51,0.26-0.76c0.06-0.22,0.14-0.44,0.22-0.65
		c0.05-0.14,0.11-0.27,0.19-0.41c0.15-0.06,0.29-0.15,0.41-0.25l1.28-1.01l-0.66-0.18c0.29-0.33,0.24-0.66,0.2-0.8L64.3,36.4
		c-0.11-0.12-0.23-0.25-0.36-0.38c-0.13-0.13-0.26-0.25-0.39-0.37c-0.08-0.07-0.17-0.15-0.28-0.23c-0.11-0.08-0.22-0.15-0.32-0.21
		l-0.42-0.19l-0.33,0.39c-0.23-0.07-0.47-0.14-0.71-0.2l-0.35-0.08l-0.24,0.25c-0.11,0.11-0.23,0.21-0.36,0.3
		c-0.17,0.11-0.35,0.24-0.52,0.36l-0.21,0.15l-0.03,0.25c-0.07,0.6-0.21,1.17-0.41,1.7c-0.2,0.53-0.49,1.05-0.87,1.55l-0.3,0.42
		l0.25,0.24c-0.18,0.2-0.28,0.46-0.28,0.76c0,0,0,0,0,0c-0.08,0.05-0.15,0.12-0.22,0.19c-0.17,0.18-0.3,0.4-0.38,0.65
		c-0.06,0.19-0.12,0.38-0.17,0.58c-0.04,0.16-0.09,0.32-0.14,0.48c-0.04,0.1-0.08,0.18-0.15,0.25C57.04,43.35,57,43.37,57,43.38
		l-0.32,0.21l0.06,0.37c0.01,0.07,0.03,0.13,0.05,0.2l-0.1,0.12l0.01,0.18c-0.16,0.51-0.3,0.98-0.44,1.39
		c-0.14,0.42-0.35,0.88-0.62,1.37l-0.29,0.51l0.2,0.11c-0.14,0.18-0.26,0.37-0.35,0.58c-0.09,0.21-0.15,0.41-0.21,0.61
		c-0.05,0.16-0.1,0.33-0.16,0.5c-0.04,0.1-0.09,0.19-0.25,0.33l-0.34,0.13l-0.04,0.36c-0.02,0.23-0.07,0.44-0.15,0.64
		c-0.09,0.24-0.19,0.48-0.29,0.73c-0.11,0.26-0.21,0.52-0.3,0.77c-0.07,0.21-0.12,0.42-0.15,0.64c-0.1,0.05-0.19,0.12-0.29,0.22
		l-0.28,0.3l0.2,0.36c0.07,0.13,0.09,0.25,0.07,0.39c-0.02,0.13-0.08,0.24-0.15,0.34c-0.12-0.11-0.25-0.21-0.38-0.29l-0.5-0.34
		c0-0.03,0-0.05,0-0.08c0.02-0.22,0-0.55-0.28-0.91l-0.12-0.15l-0.18-0.06c-0.3-0.09-0.61-0.18-0.92-0.27
		c-0.34-0.1-0.69-0.16-1.04-0.18c-0.37-0.02-0.73,0.03-1.07,0.14c-0.37,0.12-0.72,0.35-1.03,0.67c-0.22,0.24-0.37,0.45-0.44,0.66
		c-0.07,0.19-0.1,0.37-0.1,0.55l0,0.35c0,0.03-0.01,0.11-0.06,0.26L46.6,55.5l0.4,0.25c0.17,0.11,0.34,0.22,0.51,0.33
		c0.16,0.11,0.31,0.23,0.46,0.36c0.12,0.1,0.21,0.21,0.3,0.33c0.06,0.09,0.1,0.2,0.12,0.32l0.05,0.31l0.3,0.13
		c0.07,0.03,0.12,0.06,0.17,0.1c0.08,0.06,0.15,0.12,0.22,0.18c0.36,0.32,0.68,0.7,0.96,1.12c0.24,0.37,0.5,0.72,0.79,1.04
		c-0.1,0.2-0.17,0.4-0.22,0.61c-0.07,0.31-0.12,0.64-0.14,0.98l-0.07,0.92c-0.02,0.24-0.08,0.48-0.17,0.71l-0.1,0.23l0.11,0.23
		c0.2,0.41,0.46,0.77,0.79,1.06c0.59,0.53,1.33,0.73,2.2,0.59l0.24-0.07l0.14-0.15c0.3-0.31,0.53-0.66,0.71-1.05
		c0.05-0.11,0.11-0.21,0.17-0.31c0.29,0.36,0.59,0.72,0.9,1.06l1.42,1.56c0.46,0.5,0.89,1.02,1.31,1.55
		c0.33,0.43,0.64,0.88,0.91,1.35c-0.22,0.4-0.36,0.85-0.4,1.34c-0.06,0.71,0.19,1.34,0.73,1.82c0.15,0.14,0.35,0.26,0.59,0.39
		c0.26,0.13,0.5,0.21,0.75,0.24c0.32,0.03,0.66-0.06,1.04-0.28c0.07-0.04,0.14-0.08,0.2-0.1c0.44,0.57,0.91,1.13,1.38,1.66
		c0.55,0.62,1.1,1.26,1.62,1.87c0.05,0.07,0.14,0.2,0.28,0.37l0.39,0.51c0.14,0.19,0.27,0.36,0.39,0.5
		c0.15,0.18,0.25,0.29,0.28,0.31c0.13,0.12,0.27,0.2,0.41,0.25c0.06,0.33,0.24,0.63,0.53,0.88c0.18,0.16,0.38,0.29,0.58,0.4
		c0.08,0.04,0.16,0.08,0.24,0.12l-0.11,0.38l0.41,0.23c0.38,0.22,0.76,0.44,1.15,0.68c0.38,0.23,0.75,0.47,1.12,0.72
		c0.16,0.1,0.31,0.21,0.47,0.34c0.21,0.17,0.41,0.31,0.66,0.46c0.15,0.06,0.29,0.09,0.41,0.08c0.05,0.07,0.12,0.14,0.18,0.2
		c0.34,0.3,0.77,0.54,1.26,0.71c0.39,0.13,0.76,0.28,1.09,0.44l0.29,0.06c0.27-0.01,0.56-0.02,0.86-0.04
		c0.33-0.02,0.66-0.06,0.99-0.13c0.34-0.07,0.67-0.18,0.98-0.31c0.34-0.15,0.64-0.37,0.89-0.64c0.17-0.18,0.32-0.36,0.46-0.56
		c0.13-0.19,0.25-0.38,0.36-0.58c0.19-0.37,0.38-0.72,0.58-1.06l0.1-0.19l-0.04-0.21c-0.03-0.16-0.05-0.29-0.08-0.29l0.36-0.39
		l-0.14-0.34c-0.04-0.11-0.05-0.22-0.02-0.33c0.06-0.2,0.14-0.4,0.23-0.6l0.07-0.15l-0.02-0.16c-0.05-0.49-0.07-0.99-0.05-1.49
		C80.58,75.87,80.6,75.35,80.63,74.83z"/>
	<path class="st0" d="M91.27,38.42l-0.12-0.11c-0.06-0.06-0.11-0.11-0.19-0.16l0.08-0.21l-0.02-0.17l-0.08-0.25
		c-0.12-0.19-0.29-0.33-0.5-0.39c-0.43-1.02-0.91-2.05-1.42-3.07c-0.51-1.01-0.92-2.07-1.22-3.16l-0.04-0.15l-0.12-0.11
		c-0.12-0.12-0.26-0.24-0.41-0.36c-0.02-0.02-0.04-0.03-0.05-0.05c0.26-0.4,0.54-0.77,0.85-1.13c0.4-0.46,0.81-0.92,1.24-1.36
		c0.44-0.45,0.88-0.89,1.32-1.32c0.37-0.36,0.73-0.74,1.07-1.13c0.07-0.01,0.15-0.03,0.23-0.06l0.95,0.69l-0.26-1.44
		c-0.01-0.06,0-0.1,0.03-0.14c0.08-0.13,0.18-0.26,0.31-0.38c0.16-0.17,0.32-0.33,0.46-0.49c0.09-0.1,0.16-0.2,0.23-0.31
		c0.12-0.03,0.23-0.07,0.34-0.13c0.24-0.14,0.45-0.33,0.6-0.59c0.04-0.06,0.09-0.13,0.13-0.19c0.18,0,0.36,0.01,0.53,0
		c0.22,0,0.42,0.02,0.63,0.07l0.82,0.18l-0.08-0.81c0.07-0.09,0.16-0.18,0.27-0.27c0.13-0.11,0.26-0.21,0.39-0.3
		c0.21-0.15,0.37-0.35,0.49-0.58l0.16-0.31l-0.2-0.29c-0.21-0.3-0.4-0.59-0.59-0.89c-0.24-0.39-0.57-0.7-0.96-0.93l-0.24-0.14
		l-0.26,0.09c-0.18,0.06-0.34,0.09-0.46,0.08c-0.18-0.01-0.36-0.02-0.54-0.05c-0.24-0.03-0.5-0.04-0.75-0.01
		c-0.29,0.03-0.6,0.15-0.95,0.35c-0.51,0.3-0.97,0.66-1.35,1.08c-0.3,0.33-0.66,0.62-1.06,0.85l-0.44,0.15l-0.12,0.28
		c-0.13,0.3-0.3,0.58-0.51,0.83c-0.2,0.24-0.43,0.44-0.76,0.63l-0.15,0.09l-0.08,0.15c-0.21,0.41-0.48,0.79-0.8,1.11
		c-0.35,0.36-0.71,0.71-1.1,1.05c-0.4,0.36-0.79,0.72-1.16,1.09c-0.35,0.35-0.67,0.75-0.93,1.16c-0.17,0.1-0.32,0.2-0.44,0.32
		c-0.12,0.12-0.23,0.25-0.33,0.38c-0.1,0.14-0.19,0.28-0.27,0.43c-0.02,0.05-0.06,0.09-0.1,0.12l-0.54,0.4
		c-0.22,0.22-0.44,0.44-0.65,0.66c-0.17,0.18-0.36,0.33-0.58,0.46c-0.13,0.08-0.23,0.13-0.3,0.15l-0.32,0.11l-0.06,0.33
		c-0.02,0.12-0.08,0.25-0.19,0.38c-0.15,0.19-0.33,0.38-0.52,0.58c-0.22,0.22-0.43,0.44-0.63,0.67c-0.13,0.15-0.24,0.31-0.34,0.47
		c-0.14,0.02-0.27,0.07-0.4,0.15c-0.3,0.17-0.55,0.43-0.74,0.76c-0.09,0.15-0.2,0.27-0.44,0.39l-0.72-0.23l-0.06,0.73
		c-0.01,0.13-0.06,0.25-0.16,0.37c-0.13,0.16-0.27,0.28-0.42,0.37c-0.07,0.04-0.14,0.07-0.25,0.1l-0.97-0.11l0.32,0.9
		c-0.05,0.1-0.12,0.19-0.21,0.28c-0.12,0.13-0.26,0.26-0.4,0.39c-0.1,0.1-0.19,0.19-0.26,0.29c-0.09,0.03-0.18,0.06-0.26,0.11
		c-0.33,0.19-0.63,0.45-0.86,0.74c-0.15,0.19-0.33,0.34-0.52,0.45c-0.06,0.03-0.11,0.06-0.16,0.08c-0.06,0.02-0.12,0.05-0.2,0.08
		l-0.19,0.07l-0.11,0.17c-0.32,0.5-0.44,1.05-0.35,1.64c0.08,0.53,0.26,1.04,0.55,1.5c0.22,0.34,0.5,0.67,0.84,0.98l0.22,0.2
		l0.29-0.05c0.36-0.06,0.69-0.09,1-0.09c0.42,0,0.86-0.11,1.31-0.32l0.49-0.23l-0.2-0.5c-0.02-0.06-0.03-0.1-0.03-0.12
		c0.45-0.34,0.86-0.73,1.22-1.15c0.38-0.44,0.75-0.89,1.11-1.35c0.34-0.45,0.7-0.88,1.07-1.31c0.34-0.4,0.73-0.76,1.16-1.07
		l0.42-0.36l-0.19-0.28c0.01-0.01,0.03-0.03,0.04-0.05c0.06-0.03,0.11-0.05,0.16-0.08l0.24-0.14c0.38-0.23,0.74-0.51,1.05-0.84
		c0.24-0.26,0.52-0.49,0.82-0.69l0.28-0.18l-0.02-0.33c0-0.04,0.01-0.09,0.08-0.17c0.09-0.11,0.18-0.2,0.29-0.27
		c0.07,0.09,0.13,0.18,0.19,0.27c0.27,0.42,0.5,0.87,0.68,1.33c0.19,0.48,0.42,0.93,0.68,1.36c0.02,0.24,0.09,0.49,0.2,0.73
		c0.12,0.26,0.26,0.52,0.41,0.78c0.14,0.21,0.26,0.42,0.36,0.62c0.09,0.17,0.1,0.27,0.1,0.31l0,0.15l0.08,0.14
		c0.52,0.9,0.97,1.83,1.33,2.77c0.38,0.99,0.81,1.98,1.3,2.91c0.07,0.15,0.16,0.33,0.29,0.55c0.1,0.18,0.2,0.37,0.29,0.58
		c0.08,0.19,0.15,0.38,0.19,0.56c0.03,0.13,0.02,0.18,0.02,0.18l-0.1,0.28l0.18,0.24c0.34,0.47,0.65,0.97,0.93,1.48
		c0.29,0.54,0.61,1.08,0.94,1.6c0.34,0.54,0.72,1.03,1.12,1.46c-0.05,0.23,0.01,0.47,0.16,0.62l0.04,0.24l0.35,0
		c0.06,0.06,0.09,0.1,0.11,0.13c0.06,0.1,0.07,0.16,0.07,0.17l-0.05,0.64l0.67-0.01c0.07,0,0.15,0.01,0.25,0.15
		c0.21,0.28,0.4,0.52,0.58,0.73l0.07,0.08l0.09,0.05c0.24,0.14,0.46,0.24,0.65,0.3c0,0,0.04,0.03,0.1,0.14l0.16,0.3l0.34,0.02
		c0.19,0.01,0.37,0.04,0.53,0.08c0.11,0.03,0.22,0.07,0.31,0.15l0.19,0.14l0.23-0.02c0.14-0.01,0.26-0.04,0.38-0.08
		c0.08-0.03,0.17-0.07,0.26-0.13c0.21-0.12,0.38-0.3,0.51-0.56c0.01,0,0.02,0,0.03,0c0.22-0.01,0.39-0.05,0.53-0.13
		c0.18-0.11,0.34-0.25,0.47-0.44c0.04-0.05,0.07-0.11,0.11-0.17c0.14-0.25,0.22-0.49,0.23-0.71c0.03-0.23-0.03-0.49-0.18-0.86
		c-0.1-0.24-0.17-0.43-0.22-0.59c-0.06-0.16-0.11-0.31-0.15-0.47c-0.06-0.24-0.16-0.46-0.35-0.76l-0.15-0.23l-0.27-0.04
		c-0.42-0.07-0.85-0.05-1.25,0.04c-0.15,0.04-0.29,0.05-0.44,0.04c-0.05-0.09-0.1-0.18-0.16-0.28c-0.16-0.25-0.39-0.47-0.69-0.64
		c-0.28-0.49-0.6-0.96-0.97-1.38c-0.35-0.41-0.68-0.86-0.98-1.34c-0.03-0.05-0.05-0.1-0.07-0.15c-0.03-0.09-0.05-0.19-0.11-0.39
		l-0.76-1.68c-0.46-1.01-0.93-2.01-1.43-2.99c-0.48-0.94-0.86-1.93-1.13-2.94L91.27,38.42z"/>
	<path class="st0" d="M102.84,25.08c0.01,0.79,0.03,1.58,0.07,2.38c0.04,0.82,0.16,1.65,0.35,2.45l0.1,0.21
		c0.18,0.25,0.39,0.5,0.61,0.74c0.24,0.25,0.49,0.47,0.76,0.65c0.29,0.2,0.62,0.35,0.97,0.44c0.36,0.09,0.76,0.09,1.18,0.01
		l0.21-0.04l0.13-0.15c0.24-0.27,0.46-0.55,0.67-0.84c0.05-0.07,0.1-0.14,0.15-0.22c0.29-0.43,0.45-0.94,0.48-1.5l0.01-0.19
		l-0.11-0.16c-0.18-0.25-0.34-0.51-0.49-0.77c-0.14-0.25-0.27-0.52-0.38-0.8c-0.09-0.23-0.17-0.46-0.19-0.81l0.27-0.28l-0.17-0.35
		c-0.09-0.18-0.13-0.37-0.14-0.57c-0.01-0.26-0.01-0.53,0.01-0.8l0.05-0.89c0.01-0.29-0.02-0.58-0.08-0.86
		c0.19-0.49,0.24-1.03,0.16-1.6c-0.07-0.56-0.18-1.1-0.3-1.58l-0.04-0.16l-0.12-0.12c-0.25-0.24-0.54-0.43-0.86-0.54
		c-0.22-0.08-0.44-0.17-0.67-0.27l-0.27-0.12l-0.26,0.14c-0.35,0.18-0.73,0.36-1.13,0.53c-0.52,0.22-0.93,0.58-1.24,1.06l-0.12,0.19
		l0.05,0.22c0.16,0.75,0.26,1.52,0.3,2.27C102.81,23.53,102.83,24.31,102.84,25.08z"/>
	<path class="st0" d="M116.14,27.32l0.15,0.09c0.08,0.05,0.15,0.11,0.23,0.19c0.02,0.02,0.05,0.06,0.05,0.21l-0.07,0.39l0.35,0.21
		c0.39,0.24,0.76,0.51,1.11,0.81c0.32,0.28,0.6,0.61,0.82,0.99l0.13,0.22l0.26,0.06c0.27,0.06,0.52,0.14,0.76,0.23
		c0.04,0.01,0.11,0.04,0.16,0.24l0.18,0.65l0.63-0.25c0.08-0.03,0.14-0.06,0.16-0.06c0.07-0.01,0.11,0,0.16,0.04
		c0.21,0.17,0.44,0.33,0.68,0.46l0.24,0.08c0.26,0.03,0.5,0.08,0.71,0.15c0.25,0.09,0.5,0.19,0.75,0.29
		c0.28,0.11,0.58,0.21,0.89,0.29c0.24,0.06,0.5,0.09,0.76,0.09c0.1,0.1,0.22,0.17,0.36,0.21l0.23,0.27l0.43-0.06
		c0.1-0.01,0.19-0.04,0.27-0.08c0.05,0.02,0.11,0.04,0.17,0.06c0.17,0.05,0.35,0.09,0.53,0.13c0.13,0.03,0.25,0.06,0.46,0.18
		l0.22,0.27l0.34-0.05c0.24-0.03,0.48-0.03,0.71,0c0.28,0.04,0.54,0.09,0.81,0.15l0.85,0.19c0.27,0.06,0.55,0.09,0.84,0.08
		c0.47,0.3,1,0.48,1.58,0.55c0.46,0.05,0.91,0.09,1.35,0.11c0.16,0.17,0.34,0.29,0.56,0.35c0.2,0.06,0.4,0.12,0.61,0.17
		c0.18,0.04,0.35,0.09,0.62,0.22l0.17,0.26l0.32,0.01c0.53,0.02,0.99,0.14,1.34,0.37c0.37,0.24,0.75,0.52,1.12,0.85
		c0.01,0.04,0.02,0.09,0.03,0.15c-0.13,0.16-0.2,0.34-0.24,0.54c-0.71,0.54-1.4,1.03-2.05,1.45c-0.66,0.43-1.47,0.76-2.41,0.97
		l-0.16,0.04l-0.12,0.11c-0.13,0.13-0.31,0.25-0.53,0.35c-0.26,0.12-0.52,0.23-0.8,0.33c-0.27,0.1-0.55,0.18-0.82,0.24
		c-0.27,0.06-0.52,0.11-0.75,0.14c-0.22,0.03-0.45,0.05-0.67,0.07c-0.05,0-0.09,0-0.13,0c-0.01-0.04-0.02-0.08-0.03-0.12
		c-0.06-0.25-0.15-0.49-0.27-0.72c-0.13-0.26-0.3-0.48-0.5-0.66c-0.28-0.25-0.62-0.35-0.99-0.3c-0.25,0.03-0.5,0.12-0.72,0.26
		c-0.1,0.06-0.19,0.09-0.37,0.12l-0.24,0.04l-0.14,0.19c-0.23,0.31-0.43,0.68-0.55,1.06c-0.13,0.4-0.16,0.83-0.09,1.26
		c0.09,0.55,0.31,1.06,0.65,1.51c0.34,0.44,0.75,0.8,1.21,1.06l0.15,0.09l0.18-0.01c0.56-0.02,1.12-0.04,1.68-0.04
		c0.59,0,1.19-0.05,1.77-0.13c0.34-0.05,0.66-0.11,0.96-0.19c0.29-0.08,0.6-0.18,0.79-0.27l0.19-0.03c0.17-0.02,0.33-0.02,0.48,0.01
		l0.41,0.13l0.21-0.38c0.08-0.04,0.15-0.07,0.23-0.09c0.12-0.04,0.25-0.08,0.37-0.13c0.12-0.05,0.22-0.11,0.31-0.18
		c0.69-0.1,1.35-0.34,1.95-0.71l1.54-0.96c0.13-0.08,0.26-0.15,0.4-0.21c0.19-0.08,0.38-0.18,0.53-0.29
		c0.25-0.16,0.5-0.39,0.77-0.73c0.2-0.24,0.41-0.44,0.62-0.6l0.25-0.18l-0.01-0.3c0-0.16,0.02-0.29,0.09-0.39
		c0.11-0.18,0.23-0.35,0.35-0.51c0.15-0.2,0.29-0.4,0.41-0.62c0.11-0.18,0.18-0.37,0.22-0.59c0.1-0.07,0.16-0.15,0.21-0.21
		l0.28-0.16l0.01-0.31c0.01-0.12-0.01-0.29-0.04-0.52l0,0c-0.07-0.43-0.21-0.83-0.41-1.19c-0.15-0.25-0.26-0.53-0.34-0.82L143,34.35
		l-0.13-0.12c-0.4-0.36-0.84-0.66-1.33-0.89c-0.45-0.22-0.92-0.41-1.4-0.59c-0.47-0.17-0.93-0.33-1.4-0.49
		c-0.42-0.15-0.82-0.33-1.17-0.54l-0.27-0.09c-0.87-0.07-1.73-0.23-2.54-0.48c-0.87-0.26-1.76-0.5-2.67-0.69l-0.66-0.14l-0.02,0.19
		c-0.23-0.14-0.49-0.25-0.77-0.33c-0.32-0.08-0.64-0.15-0.97-0.21l-0.94-0.15c-0.24-0.04-0.46-0.11-0.65-0.21l-0.15-0.08l-0.17,0.01
		c-0.16,0.01-0.31,0-0.46-0.03c-0.22-0.04-0.44-0.05-0.67-0.01c-0.61-0.25-1.23-0.52-1.86-0.79c-0.67-0.29-1.32-0.61-1.94-0.95
		c-0.62-0.34-1.21-0.73-1.77-1.15c-0.51-0.39-0.98-0.84-1.4-1.35c-0.06-0.24-0.14-0.48-0.24-0.71c-0.09-0.21-0.15-0.42-0.19-0.75
		c0-0.01,0-0.01,0-0.02c0.11-0.14,0.18-0.3,0.23-0.46c0.06-0.19,0.1-0.38,0.14-0.57c0.03-0.18,0.06-0.37,0.08-0.56
		c0.01-0.11,0.04-0.2,0.07-0.26c0.04-0.07,0.08-0.12,0.14-0.15c0.23-0.13,0.41-0.32,0.56-0.53c0.14-0.21,0.22-0.43,0.25-0.65
		c0,0,0.01,0,0.02-0.01c0.39-0.21,0.7-0.42,0.93-0.66c0.19-0.19,0.4-0.43,0.61-0.72c0.33-0.18,0.62-0.39,0.87-0.61l0.78-0.69
		c0.25-0.23,0.52-0.45,0.79-0.65c0.24-0.18,0.52-0.32,0.83-0.43l0.22-0.07l0.11-0.2c0.03-0.05,0.07-0.09,0.13-0.11
		c0.2-0.09,0.37-0.22,0.5-0.37c0.25-0.06,0.5-0.15,0.74-0.26l0.84-0.36c0.27-0.12,0.55-0.23,0.81-0.33
		c0.23-0.09,0.48-0.15,0.74-0.18l0.14-0.01c0.18,0.17,0.4,0.29,0.65,0.36c0.32,0.09,0.65,0.12,0.98,0.07
		c0.3-0.04,0.58-0.14,0.85-0.28c0.21-0.11,0.38-0.25,0.53-0.42c0.33-0.03,0.67-0.08,1-0.15c0.39-0.08,0.77-0.15,1.13-0.2
		c0.25-0.04,0.52-0.05,0.78-0.06c0.21,0,0.4,0.03,0.59,0.11l0.99,0.4l-0.13-0.81l0.6,0.03l-0.16-1.04
		c-0.02-0.12-0.05-0.24-0.09-0.38c0.06-0.05,0.12-0.1,0.17-0.15c0.27-0.24,0.43-0.57,0.48-0.97l0.04-0.41l-0.23-0.21l-0.06-0.39
		l-0.4-0.09c-0.17-0.04-0.32-0.09-0.48-0.2l-0.13-0.4l-0.43-0.01c-0.55-0.01-1.1-0.04-1.66-0.07c-0.6-0.03-1.21-0.01-1.81,0.07
		c-0.18,0.03-0.37,0.08-0.54,0.15c-0.01,0.01-0.03,0.01-0.04,0.02c-0.15-0.09-0.36-0.15-0.64-0.11l-0.34,0.05l-0.08,0.19
		c-0.06,0.02-0.12,0.03-0.17,0.03c-0.12,0.02-0.25,0.03-0.37,0.03c-0.22,0-0.44,0.05-0.6,0.11c-0.41,0.12-0.8,0.29-1.14,0.49
		c-0.24,0.14-0.49,0.23-0.79,0.27l-0.2,0.03l-0.23,0.08c-0.26,0.16-0.53,0.31-0.8,0.44c-0.22,0.11-0.46,0.18-0.71,0.22l-0.57-0.02
		l-0.07,0.42c-0.06,0.04-0.13,0.08-0.21,0.11c-0.13,0.05-0.26,0.1-0.38,0.16c-0.12,0.06-0.23,0.13-0.33,0.23
		c-0.29,0.05-0.47,0.18-0.62,0.3l-0.52,0.07l-0.12,0.33c-0.02,0.05-0.06,0.14-0.13,0.19c-0.77,0.51-1.53,1.01-2.27,1.49
		c-0.74,0.48-1.43,1.07-2.04,1.75c-0.17,0.07-0.31,0.16-0.43,0.29c-0.1,0.1-0.19,0.21-0.27,0.31c-0.06,0.08-0.12,0.15-0.21,0.21
		l-0.55,0.18l0.02,0.52c-0.06,0.11-0.1,0.23-0.13,0.35c-0.97,0.67-1.64,1.53-2,2.58c-0.37,1.09-0.47,2.24-0.28,3.41
		c0.13,0.84,0.41,1.68,0.82,2.51L116.14,27.32z"/>
	<path class="st0" d="M169.62,33.05c-0.06,0.14-0.11,0.28-0.16,0.39c-0.07,0.14-0.06,0.29-0.31,0.39l-0.61,0.07l0.43,0.59
		c-0.23,0.22-0.43,0.48-0.61,0.76c-0.16,0.25-0.32,0.51-0.47,0.77c-0.12,0.21-0.25,0.41-0.39,0.61c-0.16,0.23-0.35,0.45-0.56,0.64
		l-0.15,0.13l-0.03,0.2c-0.02,0.12-0.03,0.23-0.05,0.42c-0.08,0.2-0.18,0.4-0.32,0.57c-0.19,0.25-0.36,0.57-0.5,0.91
		c-0.21,0.54-0.38,1.11-0.5,1.69l-0.34,1.65l0.01,0.25c0.11,0.43,0.17,0.88,0.17,1.33c0.01,0.58,0.13,1.14,0.36,1.68l0.11,0.26
		l0.28,0.08c0.18,0.05,0.34,0.13,0.49,0.22c0.19,0.12,0.37,0.24,0.56,0.37c0.2,0.14,0.39,0.26,0.58,0.39
		c0.22,0.14,0.47,0.27,0.74,0.36c0.38,0.14,0.84,0.18,1.39,0.12c0.47-0.05,0.98-0.15,1.5-0.29l1.43-0.38
		c0.43-0.11,0.81-0.18,1.12-0.2l0.27-0.02l0.16-0.21c0.14-0.18,0.3-0.31,0.48-0.4c0.25-0.12,0.51-0.22,0.78-0.31
		c0.31-0.11,0.61-0.24,0.91-0.4c0.27-0.15,0.52-0.35,0.73-0.6c0.3-0.05,0.59-0.14,0.87-0.26c0.32-0.14,0.63-0.31,0.94-0.51
		c0.28-0.18,0.55-0.35,0.83-0.51c0.23-0.14,0.49-0.25,0.75-0.33l0.2-0.1c0.23-0.18,0.45-0.39,0.65-0.62c0.18-0.2,0.36-0.4,0.54-0.6
		c0.04-0.04,0.08-0.08,0.12-0.12c-0.04,0.15-0.08,0.3-0.11,0.45c-0.03,0.18-0.04,0.35-0.02,0.52c-0.09,0.11-0.16,0.23-0.21,0.37
		c-0.12,0.31-0.18,0.68-0.17,1.14c0,0.4,0.02,0.82,0.06,1.26c0.04,0.43,0.08,0.86,0.14,1.28c0.05,0.37,0.07,0.69,0.06,0.96
		l-0.01,0.32l0.27,0.19c0.11,0.07,0.15,0.13,0.15,0.15c0.02,0.3,0.11,0.6,0.25,0.87c0.13,0.29,0.32,0.54,0.55,0.74l0,0.48l0.28,0.2
		c0.34,0.24,0.72,0.45,1.12,0.65c0.39,0.19,0.79,0.36,1.19,0.51c0.19,0.07,0.37,0.13,0.55,0.19c0.16,0.05,0.32,0.11,0.49,0.17
		l0.23,0.09l0.23-0.1c0.57-0.25,1.15-0.47,1.73-0.69c0.6-0.22,1.2-0.46,1.78-0.72c0.6-0.27,1.18-0.57,1.72-0.92
		c0.52-0.33,1-0.72,1.45-1.18c0.35-0.1,0.65-0.29,0.89-0.56c0.14-0.16,0.32-0.29,0.52-0.39l0.15-0.07l0.09-0.14
		c0.35-0.54,0.71-1.07,1.09-1.58c0.38-0.52,0.76-1.05,1.12-1.58c0.36-0.53,0.71-1.09,1.03-1.66c0.31-0.55,0.59-1.14,0.84-1.77
		c0.17-0.08,0.3-0.23,0.38-0.43c0.05-0.13,0.08-0.25,0.13-0.48c0.09-0.24,0.21-0.46,0.37-0.66c0.22-0.29,0.4-0.6,0.53-0.94
		c0.13-0.35,0.26-0.69,0.38-1.03c0.08-0.22,0.21-0.39,0.41-0.52l0.21-0.14l0.04-0.24c0.04-0.24,0.11-0.48,0.2-0.71
		c0.04-0.11,0.09-0.22,0.15-0.32c0.02-0.05,0.08-0.1,0.15-0.15l0.41-0.31l-0.2-0.34c0.08-0.15,0.11-0.29,0.12-0.42
		c0.24-0.36,0.46-0.7,0.63-1.09c0.18-0.42,0.36-0.84,0.52-1.27c0.15-0.4,0.33-0.78,0.52-1.15c0.17-0.32,0.4-0.63,0.7-0.9l0.48-0.44
		l-0.35-0.3c0.08-0.19,0.14-0.34,0.16-0.41c0-0.01,0.05-0.07,0.22-0.23c0.2-0.19,0.34-0.33,0.41-0.4l0.21-0.22l-0.06-0.3
		c-0.03-0.15-0.02-0.35,0.04-0.59c0.08-0.34,0.14-0.68,0.19-1.02c0.05-0.39,0.05-0.76-0.03-1.09c-0.07-0.33-0.29-0.77-0.94-1.01
		c-0.36-0.14-0.72-0.17-1.09-0.09c-0.3,0.06-0.59,0.16-0.86,0.29l-0.15,0.08l-0.09,0.15c-0.13,0.21-0.26,0.49-0.39,0.82
		c-0.11,0.28-0.23,0.57-0.37,0.85c-0.13,0.26-0.27,0.5-0.42,0.72c-0.13,0.2-0.25,0.3-0.39,0.36l-0.63,0.33l0.44,0.56
		c-0.02,0.12-0.04,0.23-0.08,0.33c-0.09,0.22-0.18,0.44-0.29,0.65c-0.11,0.21-0.18,0.43-0.22,0.65c-0.21,0.11-0.38,0.29-0.49,0.59
		l-0.03,0.16l0.01,0.27c0.04,0.16,0.05,0.31,0.02,0.47c-0.04,0.21-0.09,0.41-0.17,0.6c-0.15,0.4-0.34,0.78-0.56,1.13
		c-0.26,0.42-0.48,0.87-0.67,1.34c-0.08,0.19-0.13,0.4-0.17,0.6c-0.38,0.45-0.71,0.94-0.97,1.45c-0.28,0.53-0.53,1.09-0.75,1.66
		l-0.17,0.43c-0.22,0.02-0.48,0.15-0.65,0.58c-0.57,1.27-1.28,2.44-2.01,3.52c-0.76,1.06-1.61,2.09-2.55,3.08
		c-0.35,0.17-0.7,0.35-1.05,0.56l-1.07,0.62c-0.34,0.19-0.69,0.38-1.05,0.56c-0.27,0.13-0.55,0.24-0.84,0.32
		c-0.08-0.03-0.16-0.06-0.22-0.08c-0.13-0.03-0.26-0.05-0.39-0.04l-0.27-0.02c-0.01,0-0.03-0.01-0.08-0.04
		c-0.17-0.33-0.29-0.68-0.36-1.04c-0.08-0.43-0.19-0.87-0.33-1.29c0.1-0.27,0.16-0.55,0.17-0.85c0.02-0.32,0.02-0.65,0.01-0.98
		c-0.01-0.3-0.01-0.61,0.01-0.91c0.01-0.25,0.06-0.5,0.15-0.72c0.04-0.11,0.1-0.21,0.16-0.32c0.1-0.16,0.18-0.33,0.25-0.5
		c0.09-0.23,0.13-0.48,0.12-0.72c0.22-0.39,0.44-0.8,0.64-1.2c0.23-0.47,0.44-0.94,0.63-1.42c0.23-0.58,0.38-1.12,0.45-1.62
		c0.06-0.46,0.11-0.99,0.12-1.5c0.03-0.18,0.06-0.28,0.08-0.32c0.06-0.16,0.15-0.31,0.25-0.44c0.18-0.21,0.32-0.47,0.43-0.77
		l0.17-0.45l-0.4-0.51l0.03-0.36l-0.32-0.19c-0.11-0.07-0.24-0.13-0.38-0.19l-0.26-0.1c-0.64-0.24-1.26-0.32-1.85-0.23
		c-0.49,0.07-1.14,0.37-1.52,1.35c-0.26,0.66-0.56,1.28-0.91,1.83c-0.32,0.5-0.78,0.95-1.37,1.31l-0.21,0.13l-0.05,0.24
		c-0.03,0.17-0.09,0.32-0.15,0.46c-0.08,0.15-0.15,0.31-0.22,0.48c-0.64,0.43-1.2,0.96-1.68,1.57c-0.42,0.53-0.87,1.05-1.35,1.52
		c-0.23,0.04-0.44,0.12-0.63,0.23c-0.21,0.12-0.4,0.28-0.58,0.45c-0.15,0.15-0.31,0.3-0.45,0.47c-0.07,0.08-0.14,0.15-0.21,0.21
		c-0.22,0.01-0.43,0.07-0.62,0.17c-0.18,0.09-0.35,0.19-0.52,0.29c-0.14,0.09-0.28,0.16-0.42,0.23c-0.05,0.02-0.14,0.01-0.19,0
		l-0.57-0.07l-0.11,0.59c-0.46,0.25-0.96,0.44-1.47,0.56c-0.59,0.14-1.15,0.37-1.67,0.68c-0.11,0.01-0.22,0.02-0.32,0.01
		c-0.1,0-0.21-0.03-0.24-0.03l-0.44-0.24l-0.27,0.12c-0.07,0.03-0.22,0.09-0.36,0.23c-0.13-0.06-0.25-0.11-0.37-0.15l-0.1-0.04
		c-0.03-0.34-0.01-0.69,0.04-1.02c0.08-0.47,0.21-0.93,0.39-1.39c0.1-0.27,0.24-0.58,0.4-0.95c0.16-0.37,0.34-0.74,0.53-1.11
		l0.58-1.11c0.18-0.34,0.34-0.62,0.49-0.85c0.14-0.23,0.27-0.41,0.39-0.55c0.14-0.17,0.27-0.33,0.38-0.48
		c0.11-0.16,0.24-0.36,0.36-0.58c0.1-0.19,0.22-0.45,0.35-0.77c0.29-0.33,0.59-0.65,0.88-0.98c0.33-0.37,0.63-0.77,0.87-1.15
		c0.14-0.19,0.28-0.4,0.4-0.63c0.08-0.15,0.2-0.32,0.27-0.43c0.07-0.03,0.13-0.07,0.19-0.11l0.31-0.26l-0.06-0.35
		c0.17-0.12,0.29-0.22,0.45-0.4c0.16-0.25,0.31-0.5,0.45-0.75c0.13-0.24,0.26-0.46,0.4-0.69c0.12-0.2,0.26-0.39,0.42-0.57
		c0.15-0.16,0.33-0.32,0.55-0.46l0.16-0.1l0.07-0.18c0.11-0.28,0.24-0.57,0.38-0.88c0.11-0.23,0.26-0.4,0.46-0.52l0.22-0.14
		l0.05-0.25c0.04-0.23,0.12-0.46,0.24-0.67c0.14-0.26,0.29-0.51,0.43-0.74l0.51-0.76c0.21-0.3,0.38-0.62,0.51-0.95
		c0.26-0.66,0.39-1.33,0.4-1.99c0.01-0.58,0.06-1.16,0.14-1.72l0.04-0.3l-0.22-0.21c-0.27-0.25-0.55-0.43-0.83-0.54
		c-0.16-0.06-0.34-0.12-0.54-0.17c-0.15-0.04-0.29-0.08-0.41-0.13l-0.25-0.1l-0.24,0.12c-0.49,0.25-0.89,0.61-1.19,1.08
		c-0.25,0.4-0.47,0.83-0.64,1.26c-0.14,0.36-0.26,0.74-0.38,1.13c-0.1,0.35-0.18,0.68-0.26,1.01c-0.29,0.37-0.56,0.77-0.81,1.2
		c-0.25,0.44-0.51,0.88-0.77,1.33c-0.5,0.85-1.03,1.65-1.69,2.22l-0.26,0.23l0.08,0.34c0.01,0.03,0.01,0.06,0.02,0.09
		c-0.24,0.28-0.42,0.55-0.54,0.81c-0.1,0.22-0.25,0.46-0.43,0.72c-0.2,0.26-0.44,0.55-0.71,0.8c-0.33,0.29-0.6,0.62-0.85,0.98
		l-0.11,0.17l0.02,0.2c0.01,0.1,0,0.15-0.07,0.21c-0.1,0.1-0.22,0.2-0.37,0.32l-0.42,0.35c-0.16,0.14-0.27,0.26-0.34,0.35
		C169.79,32.67,169.7,32.85,169.62,33.05z"/>
	<path class="st0" d="M233.74,41.02c-0.31-0.1-0.6-0.22-1.02-0.4c-0.12-0.09-0.26-0.15-0.42-0.19c-0.29-0.08-0.6-0.06-0.92,0.06
		c-0.05,0.02-0.11,0.03-0.26-0.01c-0.56-0.13-1.08-0.19-1.54-0.17c-0.44,0.02-0.88,0.08-1.31,0.17c-0.4,0.08-0.8,0.18-1.2,0.27
		c-0.33,0.08-0.7,0.13-1.1,0.16c-0.23-0.04-0.46,0-0.66,0.13c-0.12,0.08-0.23,0.17-0.29,0.24c-0.43-0.01-0.86,0.05-1.27,0.16
		c-0.46,0.13-0.91,0.27-1.36,0.43c-0.44,0.16-0.88,0.32-1.32,0.5c-0.38,0.15-0.78,0.24-1.17,0.29l-0.33,0.06l-0.12,0.21
		c-0.08,0.02-0.15,0.06-0.22,0.1c-0.05,0-0.09,0-0.13,0.01L219,43.05l-0.14-0.12l-0.37,0.17c-0.99,0.47-1.98,0.91-2.98,1.31
		c-1.02,0.41-2.03,0.84-3.04,1.29c-1.01,0.45-2.01,0.92-2.98,1.42c-0.98,0.5-1.94,1.09-2.86,1.75c-0.24,0.18-0.52,0.38-0.84,0.6
		c-0.35,0.25-0.64,0.49-0.86,0.73c-0.14,0.15-0.27,0.34-0.41,0.57c-0.11,0.19-0.21,0.36-0.26,0.47c-0.25,0.4-0.5,0.79-0.78,1.17
		c-0.29,0.43-0.57,0.87-0.8,1.35l-0.15,0.27l0.22,0.28c-0.04,0.12-0.09,0.24-0.15,0.35l-0.23,0.41l0.3,0.27
		c-0.05,0.22-0.05,0.39-0.01,0.46c0.01,0.13,0.05,0.25,0.14,0.46c0.06,0.24,0.09,0.47,0.09,0.7c0,0.19-0.04,0.38-0.12,0.57
		l-0.22,0.5l0.5,0.26c0.02,0.01,0.07,0.04,0.11,0.19c0.06,0.24,0.11,0.46,0.13,0.66l0.02,0.19l0.14,0.14
		c0.13,0.13,0.23,0.26,0.3,0.38l0.3,0.51c0.11,0.2,0.23,0.4,0.35,0.58c0.14,0.22,0.31,0.41,0.51,0.58c0.15,0.13,0.36,0.24,0.68,0.35
		c0.09,0.03,0.17,0.06,0.24,0.08c0.04,0.17,0.13,0.37,0.36,0.58c0.24,0.21,0.51,0.38,0.79,0.51c0.23,0.1,0.47,0.2,0.71,0.31
		l0.71,0.29c0.17,0.07,0.32,0.16,0.47,0.29l0.23,0.2l0.3-0.06c0.05-0.01,0.13-0.01,0.28,0.02c0.11,0.03,0.18,0.08,0.22,0l0.05,0.81
		l0.78-0.3c0.13-0.05,0.26-0.05,0.41,0.01c0.31,0.12,0.6,0.21,0.86,0.28l0.19,0.02c0.16-0.01,0.36,0.01,0.57,0.04
		c0.14,0.02,0.25,0.07,0.36,0.15l0.34,0.98l0.54-0.67c0.01,0.01,0.02,0.02,0.03,0.02l0.33,0.36l0.4-0.32
		c0.08,0.01,0.16,0.02,0.25,0.04c0.12,0.04,0.23,0.07,0.34,0.12c0.17,0.06,0.34,0.09,0.51,0.1c0.77,0.22,1.55,0.37,2.32,0.44
		c0.72,0.06,1.46,0.19,2.18,0.38l0.22,0.06l0.2-0.1c0.18-0.09,0.34-0.1,0.53-0.04c0.32,0.1,0.63,0.21,0.92,0.32l0.25,0.1l0.24-0.12
		c0.44-0.21,0.82-0.23,1.2-0.07l0.21,0.09l0.22-0.07c0.25-0.08,0.53-0.14,0.84-0.18c0.34-0.04,0.68-0.08,1.01-0.11
		c0.35-0.04,0.68-0.08,0.98-0.13c0.34-0.05,0.63-0.12,0.88-0.21c0.31-0.11,0.61-0.26,0.89-0.47c0.11-0.08,0.24-0.11,0.4-0.1
		l0.21,0.02l0.17-0.11c0.89-0.58,1.75-1.2,2.54-1.85c0.79-0.64,1.56-1.37,2.29-2.17c0.04-0.04,0.07-0.08,0.1-0.12
		c0.13-0.19,0.17-0.36,0.17-0.5c0.12-0.13,0.23-0.28,0.35-0.45c0.11-0.16,0.22-0.33,0.32-0.5c1.04-1.62,1.77-3.38,2.17-5.27
		c0.02-0.12,0.04-0.25,0.07-0.39c0.04-0.2,0.07-0.39,0.07-0.55c0.01-0.18-0.01-0.37-0.06-0.55c-0.03-0.09-0.05-0.19-0.06-0.27
		c-0.09-0.65-0.2-1.3-0.32-1.94c-0.12-0.65-0.29-1.3-0.49-1.94l-0.11-0.21l-0.12-0.11c-0.11-0.1-0.22-0.15-0.32-0.18
		c-0.12-0.52-0.37-0.99-0.73-1.41c-0.32-0.37-0.65-0.73-0.98-1.08c0.04-0.18,0.12-0.37,0.22-0.55c0.21-0.37,0.38-0.74,0.52-1.12
		c0.16-0.42,0.23-0.83,0.22-1.24c-0.01-0.51-0.25-0.97-0.72-1.38C234.53,41.36,234.16,41.15,233.74,41.02z M228.44,45.04
		c-0.03,0.21-0.05,0.42-0.05,0.63l-0.02,0.54c0,0.11-0.03,0.22-0.08,0.32l-0.09,0.19l0.06,0.21c0.11,0.38,0.17,0.76,0.19,1.13
		c0.02,0.44,0.06,0.87,0.11,1.3l0.04,0.28l0.25,0.15c0.16,0.09,0.19,0.13,0.19,0.13c0.08,0.28,0.25,0.53,0.54,0.78
		c0.18,0.16,0.38,0.26,0.59,0.3c0.16,0.03,0.31,0.04,0.45,0.04c0.11,0,0.22-0.01,0.49-0.02l0.43,0.09l0.21-0.37
		c0.33-0.58,0.36-1.19,0.08-1.77c0.02-0.02,0.03-0.03,0.05-0.05c0.01-0.01,0.03-0.03,0.04-0.04c0.04,0.03,0.07,0.05,0.1,0.08
		c0.27,0.24,0.51,0.52,0.7,0.84c0.21,0.36,0.43,0.7,0.67,1.03c0.05,0.31,0.11,0.6,0.19,0.89c0.07,0.24,0.16,0.47,0.28,0.71
		c-0.02,0.05-0.03,0.1-0.04,0.16l0,0.35l0.16,0.19c0.01,0.02,0.03,0.03,0.04,0.05c-0.05,0.31-0.09,0.63-0.1,0.95
		c-0.02,0.33,0,0.67,0.06,1c-0.11,0.2-0.21,0.4-0.27,0.61c-0.07,0.24-0.15,0.48-0.21,0.72c-0.06,0.22-0.13,0.42-0.21,0.62
		c-0.06,0.16-0.16,0.32-0.29,0.48l-0.08,0.1l-0.14,0.59l-0.32-0.12l-0.24,0.47c-0.3,0.58-0.68,1.13-1.14,1.63
		c-0.34,0.37-0.73,0.69-1.15,0.96c-0.41,0.27-0.87,0.47-1.37,0.61l-0.16,0.05l-0.54,0.58c-0.05,0.01-0.1,0.03-0.14,0.03
		c-0.14,0.01-0.28,0.03-0.42,0.05c-0.17,0.02-0.34,0.06-0.51,0.12c-0.08,0.03-0.16,0.06-0.23,0.11c-0.06-0.02-0.12-0.02-0.19-0.02
		c-0.13,0-0.26,0.01-0.48,0.05l-0.2-0.18l-0.34,0.13c-0.4,0.14-0.81,0.23-1.24,0.27c-0.45,0.03-0.9,0.04-1.35,0.02
		c-0.45-0.02-0.91-0.07-1.36-0.13c-0.48-0.07-0.96-0.13-1.44-0.17c-0.3-0.03-0.59-0.04-0.89-0.05c-0.27-0.01-0.52-0.02-0.86-0.08
		c-0.14-0.05-0.26-0.08-0.27-0.08c-0.36-0.11-0.72-0.2-1.08-0.27c-0.32-0.06-0.64-0.08-0.96-0.05l-0.36-0.31l-0.17-0.03
		c-0.88-0.16-1.81-0.4-2.77-0.71c-0.91-0.3-1.72-0.73-2.4-1.28l-0.19-0.16l-0.25,0.02c-0.19,0.02-0.36-0.02-0.54-0.11
		c-0.24-0.13-0.46-0.28-0.64-0.44c-0.29-0.26-0.57-0.54-0.81-0.86c-0.2-0.26-0.39-0.52-0.55-0.79c0-0.02,0-0.04,0-0.06l0.32-0.35
		l-0.35-0.39c-0.11-0.12-0.17-0.24-0.19-0.34c-0.03-0.17-0.03-0.34-0.02-0.52c0.02-0.21,0.04-0.43,0.08-0.65
		c0.03-0.22,0.05-0.43,0.05-0.64c0.31-0.52,0.68-1,1.08-1.43c0.38-0.41,0.8-0.82,1.25-1.2l1.26-1.07c0.17-0.04,0.33-0.1,0.44-0.18
		l0.68,0.41l0.21-0.75c0.02-0.07,0.05-0.13,0.13-0.2l0.34-0.11c0.14-0.04,0.28-0.09,0.42-0.15c0.15-0.06,0.29-0.15,0.45-0.29
		c0.1-0.01,0.19-0.04,0.27-0.08l0.56-0.21l0.32,0.06l0.23-0.22c0.41-0.4,0.86-0.7,1.33-0.9c0.49-0.21,1.03-0.35,1.62-0.41l0.25-0.08
		c0.75-0.45,1.63-0.85,2.6-1.19c0.97-0.34,1.92-0.58,2.83-0.72l0.25-0.1c0.35-0.25,0.7-0.4,1.04-0.47c0.4-0.08,0.8-0.14,1.21-0.17
		c0.45-0.03,0.9-0.08,1.35-0.14c0.41-0.06,0.82-0.18,1.21-0.36c0.03,0.01,0.07,0.02,0.1,0.04C228.51,44.76,228.46,44.9,228.44,45.04
		z"/>
	<path class="st0" d="M240.07,59.97l-0.58-0.16l-0.16,0.56c-0.05,0.18-0.15,0.34-0.28,0.47c-0.24,0.24-0.44,0.51-0.59,0.8
		l-0.06,0.26c0,0.25,0.08,0.51,0.23,0.78c0.19,0.32,0.44,0.57,0.76,0.74l0.53,0.28c0.38,0.48,0.8,0.87,1.25,1.16
		c0.4,0.25,0.84,0.49,1.32,0.72c0.04,0.07,0.08,0.15,0.13,0.25c0.16,0.31,0.37,0.47,0.56,0.54c0.19,0.12,0.42,0.15,0.63,0.1
		l0.2,0.21c0.13,0.1,0.29,0.19,0.58,0.31c0.13,0.13,0.25,0.26,0.36,0.4c0.16,0.2,0.35,0.37,0.53,0.49c0.37,0.3,0.74,0.58,1.12,0.86
		c0.3,0.22,0.56,0.51,0.76,0.85l0.23,0.39l0.22,0.07c0.25,0.08,0.48,0.22,0.69,0.43c0.11,0.11,0.21,0.21,0.31,0.31
		c-0.15,0.11-0.31,0.22-0.47,0.32c-0.35,0.22-0.71,0.43-1.08,0.63c-0.77,0.41-1.56,0.8-2.37,1.14c-0.83,0.35-1.66,0.7-2.52,1.06
		c-0.4,0.17-0.78,0.36-1.16,0.56c-0.35,0.19-0.71,0.36-1.08,0.53c-0.17,0.07-0.37,0.14-0.58,0.21c-0.26,0.08-0.49,0.17-0.68,0.25
		l-2.54,1.02c-0.13-0.01-0.25,0.01-0.37,0.06c-0.2-0.02-0.38-0.06-0.55-0.12c-0.31-0.11-0.81-0.17-1.39,0.14
		c-0.49,0.26-0.79,0.6-0.9,0.98c-0.04,0.13-0.11,0.27-0.21,0.42c-0.48,0.21-0.98,0.44-1.49,0.71c-0.54,0.28-1.08,0.54-1.62,0.79
		c-0.54,0.25-1.08,0.47-1.63,0.68c-0.52,0.19-1.06,0.33-1.57,0.4c-0.39,0.04-0.75,0.12-1.08,0.24c-0.31,0.11-0.62,0.25-0.93,0.41
		c-0.21,0.11-0.42,0.24-0.63,0.37c-0.21,0.13-0.41,0.28-0.7,0.5c-0.07,0.08-0.18,0.16-0.28,0.22c-0.18,0.01-0.35,0.05-0.52,0.14
		l-0.29,0.19l-0.08,0.18c-0.15,0.35-0.24,0.64-0.28,0.9l-0.15,0.99l0.1,0.18c0.13,0.23,0.34,0.38,0.61,0.42l-0.27,0.42l0.67,0.27
		c0.19,0.08,0.36,0.16,0.52,0.25c0.19,0.12,0.38,0.23,0.58,0.34l0.23,0.13l0.25-0.07c0.2-0.06,0.4-0.14,0.59-0.24l0.41-0.22
		c0.19-0.1,0.36-0.2,0.53-0.3c0.13-0.08,0.27-0.17,0.42-0.26c0.13-0.03,0.25-0.07,0.38-0.11l0.65-0.19l0.12-0.17l0,0
		c0.04-0.05,0.14-0.16,0.39-0.3l0.41-0.22c0.12-0.06,0.24-0.14,0.35-0.23c0.42-0.09,0.85-0.24,1.29-0.43
		c0.46-0.2,0.91-0.41,1.36-0.62c0.44-0.2,0.87-0.39,1.29-0.56c0.2-0.08,0.39-0.14,0.58-0.18c0.06,0.18,0.13,0.35,0.24,0.53
		c0.05,0.09,0.11,0.17,0.15,0.24c-0.02,0.13-0.03,0.25-0.03,0.37c0,0.13-0.02,0.26-0.06,0.39l-0.28,0.99l0.63-0.16
		c0.01,0.37,0.04,0.74,0.09,1.1l0.21,1.21c0.08,0.39,0.15,0.78,0.2,1.17c0.05,0.37,0.08,0.74,0.08,1.11l0,0.18l0.1,0.15
		c0.08,0.12,0.12,0.25,0.12,0.41c0,0.26-0.01,0.49-0.03,0.7c-0.03,0.29,0,0.59,0.08,0.92c0.07,0.27,0.14,0.54,0.23,0.83
		c0.08,0.26,0.14,0.52,0.2,0.77c0.04,0.2,0.05,0.39,0.02,0.57l-0.04,0.2l0.19,0.33c0.12,0.2,0.2,0.45,0.27,0.74
		c0.07,0.33,0.12,0.65,0.16,0.96c0.04,0.32,0.06,0.61,0.08,0.87c0.02,0.37,0.09,0.64,0.2,0.83l0.57,0.99
		c-0.06,0.26-0.06,0.51,0,0.74c0.06,0.24,0.15,0.48,0.27,0.7c0.09,0.16,0.16,0.33,0.22,0.5c0.04,0.11,0.05,0.24,0.04,0.38
		l-0.02,0.21l0.12,0.17c0.28,0.41,0.5,0.83,0.67,1.26c0.19,0.49,0.42,0.97,0.67,1.45l0.14,0.17c0.34,0.29,0.69,0.61,1.06,0.95
		c0.35,0.32,0.71,0.58,1.1,0.77c0.01,0.03,0.03,0.06,0.04,0.09c-0.13,0.1-0.25,0.22-0.33,0.37c-0.36,0.16-0.65,0.36-0.86,0.6
		c-0.19,0.21-0.41,0.43-0.66,0.66l-0.17,0.15l-0.02,0.22c-0.01,0.12,0,0.24,0.03,0.35c0.03,0.13,0.08,0.25,0.14,0.37
		c-0.13,0.19-0.24,0.37-0.3,0.58c-0.12,0.35-0.13,0.72-0.04,1.09c0.15,0.63,0.51,1.14,1.06,1.51c0.57,0.39,1.22,0.51,1.88,0.34
		l0.2-0.05l0.12-0.16c0.27-0.34,0.5-0.69,0.69-1.04c0.17-0.32,0.3-0.67,0.37-1.06c0.54-0.43,1.19-0.81,1.92-1.13
		c0.82-0.36,1.63-0.62,2.42-0.79l0.29-0.06c0,0.07,0,0.15,0,0.23c-0.06,0.07-0.1,0.15-0.13,0.21c-0.01,0.03-0.02,0.05-0.03,0.08
		l-0.43-0.04l0.17,0.78c0.02,0.08,0.05,0.17,0.08,0.26l0.17-0.06c-0.15,0.16-0.25,0.36-0.27,0.58c-0.01,0.11-0.02,0.22-0.04,0.33
		c-0.01,0.06-0.02,0.12,0,0.12l-0.37,0.14l0.02,0.42c0.02,0.44-0.02,0.85-0.12,1.22c-0.11,0.41-0.25,0.8-0.41,1.18
		c-0.18,0.41-0.34,0.83-0.5,1.25c-0.15,0.4-0.25,0.82-0.3,1.26c-0.22,0.26-0.4,0.52-0.54,0.79c-0.16,0.32-0.23,0.67-0.21,1.06
		c-0.27,0.41-0.46,0.85-0.59,1.31c-0.11,0.42-0.2,0.86-0.26,1.29c-0.1,0.11-0.18,0.23-0.24,0.36c-0.06,0.13-0.12,0.27-0.18,0.41
		c-0.05,0.12-0.12,0.24-0.25,0.44l-0.46,0.34l0.3,0.48c-0.11,0.21-0.14,0.44-0.08,0.71c-0.17,0.34-0.3,0.7-0.38,1.06
		c-0.09,0.39-0.18,0.8-0.26,1.2c-0.08,0.39-0.16,0.77-0.26,1.15c-0.09,0.34-0.22,0.68-0.38,1l-0.1,0.19l0.05,0.21
		c0.01,0.06,0.03,0.11,0.05,0.16c-0.06,0.11-0.1,0.23-0.12,0.35c-0.01,0.07-0.05,0.12-0.09,0.2l-0.15,0.19l0.04,0.24
		c0.07,0.42,0.09,0.84,0.08,1.26c-0.01,0.45-0.04,0.89-0.07,1.35c-0.03,0.47-0.06,0.93-0.08,1.39c-0.02,0.42,0,0.84,0.04,1.25
		c-0.1,0.18-0.16,0.37-0.18,0.55c-0.03,0.23-0.01,0.48,0.05,0.74c0.04,0.17,0.09,0.33,0.15,0.47l0.01,0.24
		c-0.08,0.2-0.09,0.41-0.05,0.61c0.06,0.25,0.16,0.48,0.31,0.69c0.06,0.09,0.1,0.18,0.14,0.15c-0.07,0.14-0.1,0.27-0.12,0.46
		c0,0.2,0.03,0.42,0.07,0.66c0.04,0.22,0.08,0.42,0.13,0.6c0.1,0.41,0.25,0.82,0.44,1.23c0.2,0.42,0.47,0.81,0.79,1.17l0.13,0.14
		l0.18,0.04c0.3,0.07,0.59,0.08,0.89,0.01l0,0c0.3-0.07,0.58-0.19,0.83-0.37c0.2-0.15,0.4-0.32,0.59-0.51l0.13-0.13l0.22-0.05
		l-0.16-0.59c-0.14-0.5-0.23-1.01-0.28-1.52c-0.05-0.54-0.1-1.07-0.13-1.6l-0.1-1.63c-0.03-0.52-0.09-1.05-0.18-1.57
		c0.07-0.26,0.13-0.52,0.17-0.76l0.13-0.78c0.06-0.28,0.06-0.6,0.02-0.97c-0.04-0.32,0-0.44-0.04-0.42c0.17-0.13,0.3-0.3,0.38-0.57
		c0.09-0.4,0.11-0.82,0.06-1.25c-0.04-0.32-0.02-0.63,0.02-0.87c0.05-0.16,0.1-0.32,0.17-0.47c0.09-0.2,0.16-0.42,0.21-0.63
		l0.32-1.15c0.11-0.36,0.24-0.71,0.39-1.05c0.17-0.38,0.31-0.76,0.42-1.14c0.07-0.24,0.1-0.51,0.09-0.8
		c-0.01-0.18,0.02-0.25-0.01-0.23c0.13-0.09,0.24-0.2,0.39-0.45c0.07-0.2,0.12-0.42,0.14-0.66c0.01-0.09,0.02-0.18,0.02-0.27
		c0.1-0.09,0.18-0.18,0.24-0.29c0.03-0.05,0.07-0.1,0.1-0.14l0.24-0.23l-0.13-0.53c0.09-0.14,0.15-0.29,0.2-0.46l0.28-0.15
		l0.02-0.32c0.02-0.33,0.08-0.65,0.18-0.96c0.11-0.34,0.24-0.69,0.37-1.03c0.14-0.36,0.27-0.72,0.4-1.08
		c0.11-0.31,0.19-0.63,0.23-0.95c0.1-0.05,0.18-0.1,0.26-0.17l0.24-0.19l-0.02-0.3c-0.02-0.22,0.01-0.39,0.09-0.5
		c0.15-0.22,0.31-0.47,0.48-0.74l0.09-0.24c0.03-0.25,0.07-0.5,0.14-0.75c0.02-0.08,0.06-0.17,0.21-0.24l0.47-0.31l-0.2-0.46
		c0.09-0.16,0.15-0.38,0.11-0.66c0.19-0.27,0.34-0.57,0.46-0.88c0.14-0.38,0.27-0.77,0.37-1.18c0.1-0.4,0.19-0.81,0.26-1.21
		c0.04-0.25,0.1-0.49,0.16-0.71l0.09-0.02c1.02,0.69,2,1.45,2.93,2.25c0.97,0.84,2,1.65,3.06,2.41c0.05,0.09,0.1,0.16,0.18,0.23
		c0,0,0,0,0,0c0,0,0,0.02,0.01,0.06l0.08,0.32l0.32,0.11c0.34,0.11,0.64,0.28,0.91,0.52c0.31,0.27,0.59,0.57,0.84,0.88l0.07,0.09
		l0.1,0.06c0.46,0.25,0.9,0.54,1.31,0.87c0.44,0.34,0.87,0.69,1.3,1.05c0.44,0.36,0.9,0.72,1.36,1.06c0.44,0.32,0.91,0.6,1.41,0.83
		c0.07,0.1,0.16,0.19,0.25,0.28c0.11,0.11,0.23,0.2,0.36,0.3c0.09,0.07,0.18,0.14,0.34,0.34l0.09,0.24l0.24,0.1
		c0.61,0.26,1.2,0.57,1.77,0.91l1.95,1.2l0.21-0.02c0.08-0.01,0.12,0.01,0.16,0.02c0.28,0.15,0.6,0.18,0.93,0.11
		c0.08-0.02,0.17-0.04,0.23-0.08l0.23-0.05l0.13-0.18c0.09-0.13,0.19-0.21,0.29-0.25c0.2-0.08,0.42-0.15,0.67-0.22l0.3-0.09
		l0.1-0.29c0.06-0.19,0.08-0.39,0.04-0.59c-0.02-0.14-0.05-0.27-0.08-0.4c-0.02-0.1-0.04-0.2-0.06-0.31
		c-0.01-0.07-0.01-0.14-0.01-0.2l0.04-0.36l-0.32-0.2c-0.24-0.15-0.44-0.34-0.61-0.58l-0.13-0.19l-0.23-0.06
		c-0.24-0.06-0.44-0.14-0.61-0.23c-0.27-0.15-0.59-0.23-0.94-0.24c-1.39-0.88-2.76-1.81-4.08-2.78c-1.34-0.99-2.68-2.05-3.98-3.15
		c-0.44-0.38-0.88-0.75-1.33-1.12c-0.43-0.36-0.86-0.73-1.27-1.11c-0.17-0.16-0.33-0.33-0.49-0.5c-0.19-0.2-0.39-0.39-0.61-0.56
		c-0.14-0.11-0.31-0.2-0.51-0.28c-0.1-0.04-0.18-0.08-0.25-0.12c-0.34-0.2-0.62-0.43-0.84-0.69c0.08-0.02,0.16-0.05,0.23-0.06
		c0.31-0.07,0.63-0.11,0.94-0.13c0.38-0.02,0.74-0.07,1.11-0.15c0.23-0.05,0.46-0.13,0.7-0.23c0.84-0.04,1.66-0.11,2.45-0.2
		c0.81-0.1,1.64-0.2,2.47-0.28c0.31-0.03,0.66-0.06,1.03-0.08c0.41-0.03,0.79-0.08,1.12-0.15c0.28-0.06,0.53-0.2,0.77-0.43
		c0.15-0.15,0.32-0.32,0.49-0.5c0.15-0.17,0.31-0.34,0.47-0.5c0.1-0.11,0.22-0.18,0.35-0.24l0.46-0.24l-0.12-0.48
		c-0.11-0.46-0.3-0.81-0.56-1.04c-0.14-0.12-0.3-0.31-0.47-0.55l-0.2-0.28l-0.35,0.03c-0.45,0.04-0.91,0.1-1.36,0.19
		c-0.39,0.08-0.78,0.11-1.18,0.09l-0.18-0.01l-0.15,0.09c-0.12,0.07-0.22,0.15-0.3,0.23c-0.08,0.01-0.19,0.01-0.35,0.01
		c-0.28,0-0.5,0-0.66,0.02c-0.45,0.04-0.89,0.09-1.32,0.15c-0.4,0.06-0.81,0.1-1.2,0.12c-0.09,0-0.26,0-0.5-0.01
		c-0.39-0.01-0.53,0-0.63,0.02c-0.72,0.16-1.44,0.28-2.15,0.36c-0.71,0.08-1.43,0.13-2.16,0.16l-0.2-0.02l-0.17,0.19
		c-0.05,0.02-0.1,0.03-0.16,0.04l-0.02,0c-0.22-0.05-0.44-0.04-0.67,0.01l-0.38-0.24l-0.34,0.29c-0.1,0.09-0.21,0.14-0.33,0.17
		c-0.15,0.03-0.3,0.05-0.44,0.04c-0.14,0-0.27,0-0.41,0.01c-0.72-0.55-1.41-1.12-2.04-1.69c-0.68-0.61-1.3-1.31-1.85-2.07
		l-0.09-0.13l-0.15-0.07c-0.34-0.15-0.72-0.25-1.13-0.3c-0.41-0.05-0.81-0.03-1.18,0.05c-0.23,0.05-0.49,0.14-0.76,0.28
		c-0.37,0.18-0.61,0.44-0.71,0.71c-0.13,0.3-0.2,0.67-0.19,1.14c0,0.42,0.04,0.77,0.11,1.07c0.1,0.43,0.25,0.85,0.45,1.26
		c0.11,0.23,0.22,0.45,0.33,0.67l-0.39,0.05c-0.22,0.03-0.42,0.06-0.63,0.11c-0.83,0.18-1.66,0.42-2.46,0.72
		c-0.25-0.34-0.51-0.67-0.81-0.95c-0.39-0.38-0.82-0.74-1.28-1.1c-0.03-0.34-0.09-0.67-0.17-0.98c-0.11-0.4-0.28-0.8-0.51-1.19
		c-0.06-0.11-0.13-0.22-0.21-0.32c-0.01-0.01-0.02-0.03-0.03-0.04c0.12-0.21,0.16-0.44,0.11-0.68l-0.07-0.21l-0.14-0.13
		c0,0-0.04-0.03-0.1-0.14c-0.15-0.26-0.24-0.55-0.27-0.84c-0.05-0.46-0.19-0.9-0.42-1.31l-0.03-0.04c0-0.05,0-0.1,0-0.15
		c0-0.04-0.01-0.08-0.02-0.12l0.51-0.28l-0.61-0.55l-0.08-0.15c-0.13-0.22-0.23-0.48-0.3-0.77c-0.06-0.26-0.07-0.49-0.02-0.69
		l0-0.28c-0.14-0.53-0.27-1.09-0.39-1.67c-0.11-0.51-0.12-1.01-0.02-1.47l0.05-0.22l-0.36-0.62c0.02-0.49-0.01-0.98-0.1-1.49
		c-0.09-0.53-0.19-1.06-0.3-1.6c-0.11-0.51-0.19-1.02-0.25-1.51c-0.05-0.45-0.03-0.88,0.06-1.3l0.07-0.31l-0.24-0.23
		c-0.01-0.01-0.04-0.05-0.08-0.16c-0.03-0.09-0.04-0.19-0.03-0.29c0.01-0.05,0.01-0.11,0.04-0.17c0.2,0.13,0.39,0.27,0.58,0.41
		c0.37,0.27,0.79,0.48,1.23,0.61c0.6,0.54,1.27,1.01,1.97,1.39c0.67,0.36,1.33,0.78,1.95,1.26l0.13,0.1l0.17,0.02
		c0.32,0.04,0.62,0.13,0.87,0.28c0.34,0.2,0.7,0.39,1.09,0.57l0.69,0.3c0.2,0.09,0.27,0.15,0.27,0.11l0.15,0.84l0.85-0.46
		c0.06,0.01,0.11,0.03,0.17,0.07l0.39,0.23c0.12,0.07,0.25,0.12,0.38,0.15l0.3,0.52l0.35,0.01c0.19,0,0.37-0.01,0.54-0.04
		c0.38,0.26,0.78,0.46,1.2,0.59c0.48,0.15,0.98,0.25,1.49,0.31c0.48,0.05,0.96,0.1,1.45,0.13c0.44,0.03,0.87,0.11,1.29,0.23
		l0.21,0.06l0.2-0.08c0.26-0.11,0.5-0.17,0.69-0.16c0.27,0,0.58,0.02,0.92,0.06l0.21,0.02l0.18-0.11c0.15-0.1,0.33-0.17,0.52-0.2
		c0.33-0.06,0.64-0.17,0.93-0.32c0.33-0.18,0.58-0.42,0.74-0.71c0.04-0.08,0.09-0.13,0.15-0.17l0.48-0.24l0.02-0.32
		c0-0.07,0.03-0.15,0.07-0.22c0.08-0.12,0.17-0.24,0.27-0.35l0.13-0.14l0.02-0.18c0.1-0.76,0.12-1.55,0.06-2.33
		c-0.06-0.79-0.2-1.57-0.41-2.34c-0.21-0.76-0.47-1.51-0.78-2.24c-0.31-0.72-0.65-1.41-1.02-2.06c-0.16-0.28-0.33-0.56-0.52-0.84
		c-0.15-0.22-0.3-0.44-0.45-0.65c-0.02-0.23-0.09-0.45-0.21-0.66c-0.13-0.22-0.3-0.4-0.5-0.54c-0.57-0.96-1.2-1.89-1.89-2.76
		c-0.71-0.9-1.44-1.79-2.19-2.67l-0.1-0.12l-0.14-0.06c-0.1-0.04-0.19-0.06-0.28-0.07c-0.02-0.08-0.06-0.15-0.1-0.22
		c-0.2-0.35-0.47-0.64-0.79-0.86c-0.18-0.12-0.32-0.28-0.47-0.5l0.09-0.87l-0.87,0.19c-0.13-0.09-0.25-0.19-0.36-0.31
		c-0.15-0.16-0.31-0.31-0.48-0.46c-0.15-0.13-0.31-0.22-0.47-0.29c-0.02-0.11-0.06-0.23-0.13-0.34l-0.08-0.15l-0.15-0.08
		c-0.62-0.34-1.18-0.74-1.69-1.21c-0.53-0.49-1.11-0.93-1.71-1.31c-0.11-0.19-0.24-0.35-0.39-0.47c-0.14-0.11-0.29-0.22-0.44-0.33
		c-0.12-0.08-0.23-0.16-0.34-0.26c-0.07-0.06-0.13-0.13-0.22-0.28l-0.05-0.27l-0.25-0.14c-0.5-0.28-0.99-0.6-1.44-0.97
		c-0.48-0.39-0.97-0.77-1.47-1.14l-0.23-0.17l-0.28,0.06C240.47,59.85,240.3,59.9,240.07,59.97z M254.61,77.57
		c0.27,0.39,0.51,0.78,0.75,1.18c0.12,0.21,0.23,0.43,0.34,0.64c0.1,0.22,0.2,0.44,0.29,0.66c0.04,0.09,0.07,0.19,0.1,0.29
		c0.04,0.13,0.08,0.26,0.17,0.46l0.31,0.53c0.1,0.18,0.19,0.36,0.25,0.55c0.08,0.22,0.15,0.45,0.21,0.66
		c0.12,0.46,0.21,0.92,0.28,1.38c0.06,0.45,0.14,0.89,0.24,1.34c-0.06,0.17-0.09,0.33-0.11,0.5c-0.01,0.15-0.03,0.3-0.05,0.44
		c-0.02,0.1-0.05,0.19-0.09,0.26c0,0-0.03,0.05-0.17,0.13c-0.18,0.1-0.37,0.15-0.57,0.16c-0.27,0.01-0.56,0.01-0.85-0.01
		c-0.3-0.02-0.6-0.05-0.91-0.08c-0.31-0.03-0.61-0.03-0.89,0.02c-1.05-0.35-2.08-0.75-3.07-1.19c-1.04-0.46-2.13-0.9-3.23-1.29
		c-0.14-0.13-0.3-0.22-0.46-0.31l-0.15-0.26l-0.3-0.04c-0.18-0.02-0.34-0.07-0.49-0.16c-0.23-0.13-0.48-0.22-0.74-0.27
		c-0.46-0.39-0.96-0.75-1.46-1.05c-0.53-0.33-1.07-0.65-1.61-0.97c-0.53-0.31-1.03-0.64-1.53-0.99c-0.26-0.18-0.51-0.38-0.74-0.6
		c0.86-0.41,1.72-0.8,2.58-1.16c1.13-0.47,2.26-0.95,3.4-1.44c0.4-0.17,0.79-0.35,1.17-0.53c0.36-0.17,0.74-0.35,1.17-0.54
		l0.47-0.25c0.14-0.08,0.27-0.13,0.42-0.18c0.08-0.03,0.16-0.05,0.25-0.06c0.15-0.03,0.29-0.06,0.41-0.1
		c0.3-0.09,0.59-0.2,0.87-0.33c0.27-0.12,0.53-0.25,0.79-0.39l0.3-0.16c0.02,0.01,0.04,0.03,0.06,0.05
		c0.14,0.11,0.28,0.22,0.43,0.34c0.16,0.13,0.31,0.26,0.45,0.38c0.1,0.08,0.18,0.15,0.23,0.2c0.1,0.12,0.2,0.25,0.29,0.41
		c0.12,0.21,0.25,0.41,0.37,0.58L254.61,77.57z"/>
	<path class="st0" d="M263.04,164.87l-0.29-0.03l-0.2,0.21c-0.25,0.26-0.5,0.48-0.74,0.65c-0.33,0.25-0.61,0.59-0.84,1.03
		l-0.24,0.47l0.47,0.29c0.05,0.03,0.08,0.06,0.1,0.08c-0.15,0.54-0.23,1.09-0.26,1.64c-0.03,0.58-0.04,1.16-0.04,1.74
		c0,0.56-0.01,1.12-0.04,1.68c-0.03,0.52-0.11,1.04-0.26,1.54l-0.11,0.54l0.32,0.11c0,0.02,0,0.04,0,0.06
		c-0.03,0.06-0.06,0.11-0.08,0.16l-0.1,0.25c-0.17,0.41-0.27,0.84-0.32,1.29c-0.04,0.35-0.11,0.7-0.23,1.03l-0.11,0.31l0.22,0.26
		c0.03,0.04,0.04,0.1,0.04,0.18c0,0.14-0.02,0.27-0.06,0.38c-0.11-0.03-0.21-0.07-0.31-0.11c-0.47-0.19-0.93-0.42-1.36-0.68
		c-0.45-0.27-0.91-0.51-1.38-0.7c-0.17-0.18-0.37-0.34-0.61-0.47c-0.26-0.15-0.52-0.27-0.81-0.39c-0.24-0.09-0.46-0.19-0.67-0.29
		c-0.17-0.08-0.24-0.16-0.27-0.19l-0.1-0.13l-0.15-0.06c-0.97-0.42-1.9-0.91-2.76-1.46c-0.91-0.58-1.86-1.12-2.83-1.6
		c-0.14-0.08-0.33-0.17-0.57-0.27c-0.19-0.09-0.39-0.18-0.58-0.3c-0.19-0.11-0.35-0.22-0.5-0.34c-0.11-0.09-0.13-0.14-0.13-0.14
		l-0.1-0.28l-0.29-0.09c-0.57-0.19-1.13-0.41-1.65-0.65c-0.57-0.26-1.14-0.51-1.73-0.75c-0.6-0.24-1.21-0.41-1.79-0.53
		c-0.11-0.22-0.3-0.37-0.52-0.41l-0.17-0.16l-0.27,0.2c-0.07-0.01-0.12-0.02-0.16-0.04c-0.13-0.05-0.16-0.09-0.16-0.1l-0.36-0.55
		l-0.52,0.4c-0.04,0.03-0.11,0.08-0.29,0.03c-0.34-0.1-0.64-0.19-0.91-0.25l-0.21-0.01c-0.27,0.03-0.52,0.08-0.7,0.14
		c0,0-0.05,0-0.17-0.06l-0.31-0.14l-0.28,0.18c-0.16,0.1-0.32,0.19-0.47,0.25c-0.11,0.04-0.22,0.07-0.34,0.07l-0.23,0l-0.17,0.15
		c-0.11,0.1-0.2,0.2-0.25,0.29c-0.04,0.07-0.09,0.16-0.13,0.26c-0.09,0.22-0.12,0.45-0.06,0.75c-0.01,0.01-0.02,0.01-0.03,0.02
		c-0.18,0.14-0.28,0.28-0.34,0.42c-0.1,0.25-0.13,0.53-0.08,0.83c0.04,0.28,0.13,0.53,0.25,0.7c0.12,0.2,0.32,0.38,0.67,0.59
		c0.23,0.13,0.4,0.24,0.54,0.34c0.14,0.09,0.28,0.19,0.41,0.29c0.19,0.15,0.4,0.28,0.75,0.41l0.25,0.1l0.24-0.12
		c0.38-0.19,0.7-0.45,0.97-0.77c0.1-0.11,0.2-0.21,0.33-0.29c0.1,0.05,0.19,0.09,0.29,0.13c0.28,0.11,0.59,0.15,0.94,0.12
		c0.53,0.23,1.07,0.42,1.62,0.55c0.53,0.13,1.07,0.3,1.61,0.51c0.05,0.02,0.1,0.04,0.15,0.08c0.08,0.06,0.15,0.12,0.33,0.25
		l1.64,0.91c0.99,0.55,1.98,1.07,2.98,1.58c0.95,0.48,1.87,1.06,2.71,1.71l0.13,0.1l0.16,0.02c0.14,0.02,0.19,0.03,0.25,0.02
		l0.07,0.22l0.21,0.23l0.13,0.05c0.21,0.09,0.44,0.09,0.63,0.03c0.97,0.57,1.99,1.13,3.01,1.65c1.02,0.52,2,1.13,2.91,1.84l0.13,0.1
		l0.16,0.02c0.17,0.02,0.35,0.04,0.54,0.05c0.02,0,0.05,0,0.07,0.01c0.04,0.47,0.05,0.94,0.03,1.41c-0.03,0.61-0.08,1.21-0.14,1.82
		c-0.07,0.62-0.15,1.23-0.23,1.84c-0.07,0.51-0.13,1.02-0.16,1.54c-0.05,0.05-0.11,0.1-0.14,0.19l-1.18-0.01l1.09,1.02
		c0.04,0.04,0.06,0.08,0.07,0.14c0.02,0.15,0.02,0.31,0,0.48c-0.03,0.23-0.05,0.45-0.06,0.67c-0.01,0.13-0.01,0.26,0.01,0.39
		c-0.08,0.09-0.14,0.19-0.19,0.31c-0.1,0.26-0.14,0.53-0.11,0.82c0.01,0.08,0.01,0.16,0.01,0.23c-0.15,0.1-0.29,0.2-0.43,0.31
		c-0.16,0.12-0.34,0.23-0.54,0.31l-0.75,0.33l0.56,0.61c0,0.12-0.02,0.24-0.05,0.38c-0.04,0.16-0.08,0.32-0.12,0.47
		c-0.07,0.25-0.08,0.5-0.03,0.76l0.07,0.34l0.33,0.11c0.35,0.12,0.69,0.24,1.02,0.37c0.43,0.17,0.88,0.23,1.34,0.19l0.28-0.03
		l0.16-0.23c0.1-0.15,0.21-0.27,0.31-0.34c0.15-0.1,0.3-0.19,0.46-0.28c0.22-0.11,0.42-0.26,0.6-0.43c0.08-0.08,0.16-0.17,0.23-0.27
		c0.11-0.16,0.21-0.35,0.3-0.57c0.22-0.54,0.36-1.1,0.41-1.66c0.04-0.44,0.14-0.88,0.31-1.3l0.06-0.16l0.2-0.22l-0.07-0.29
		c-0.08-0.32-0.11-0.64-0.1-0.97c0.01-0.31,0.07-0.61,0.21-0.96l0.06-0.16l-0.03-0.17c-0.09-0.45-0.11-0.91-0.06-1.36
		c0.05-0.49,0.13-0.99,0.22-1.49c0.1-0.52,0.18-1.05,0.24-1.56c0.06-0.49,0.07-0.99,0.02-1.48c0.08-0.18,0.13-0.35,0.15-0.52
		c0.02-0.17,0.03-0.33,0.02-0.5c-0.01-0.17-0.02-0.33-0.05-0.5c-0.01-0.06-0.01-0.11,0.01-0.16l0.18-0.64
		c0.04-0.31,0.08-0.61,0.11-0.91c0.02-0.24,0.08-0.48,0.18-0.71c0.09-0.21,0.13-0.28,0.14-0.29l0.19-0.28l-0.16-0.3
		c-0.06-0.11-0.09-0.25-0.08-0.41c0.01-0.24,0.02-0.5,0.06-0.77c0.04-0.31,0.07-0.61,0.08-0.91c0.01-0.2,0-0.39-0.02-0.58
		c0.09-0.1,0.17-0.22,0.22-0.36c0.13-0.31,0.17-0.66,0.11-1.04c-0.02-0.18-0.01-0.34,0.11-0.58l0.71-0.24l-0.4-0.63
		c-0.07-0.11-0.1-0.24-0.1-0.39c0.01-0.2,0.04-0.38,0.11-0.55c0.03-0.07,0.07-0.14,0.13-0.23l0.82-0.48l-0.8-0.53
		c-0.02-0.11-0.02-0.22-0.01-0.35l0.07-0.55c0.02-0.14,0.03-0.26,0.03-0.39c0.07-0.09,0.1-0.16,0.14-0.24
		c0.14-0.35,0.22-0.72,0.23-1.11c0-0.24,0.05-0.47,0.13-0.67c0.02-0.06,0.05-0.11,0.08-0.16c0.03-0.05,0.06-0.11,0.11-0.17
		l0.11-0.17l-0.02-0.2c-0.05-0.59-0.3-1.1-0.74-1.53c-0.39-0.39-0.85-0.68-1.36-0.89C263.94,165.02,263.51,164.92,263.04,164.87z"/>
	<path class="st0" d="M236.54,185.94c-0.43-0.22-0.85-0.46-1.25-0.71c-0.45-0.28-0.93-0.52-1.44-0.72l-0.29-0.13l-0.27,0.22
		c-0.13-0.03-0.25-0.07-0.36-0.13l-0.44-0.22l-0.25,0.31c-0.22-0.04-0.4-0.03-0.47,0.01c-0.13,0.01-0.26,0.06-0.46,0.15
		c-0.25,0.07-0.48,0.11-0.71,0.12c-0.2,0.01-0.39-0.02-0.59-0.09l-0.52-0.19l-0.23,0.49c-0.01,0.02-0.04,0.07-0.18,0.11
		c-0.24,0.07-0.47,0.12-0.67,0.15l-0.2,0.03l-0.14,0.14c-0.12,0.13-0.25,0.23-0.36,0.31l-0.51,0.32c-0.2,0.12-0.39,0.24-0.57,0.36
		c-0.21,0.14-0.4,0.32-0.57,0.52c-0.12,0.16-0.22,0.36-0.32,0.68c-0.03,0.08-0.05,0.16-0.07,0.24c-0.17,0.04-0.38,0.15-0.57,0.38
		c-0.21,0.25-0.36,0.52-0.47,0.79c-0.09,0.23-0.18,0.46-0.27,0.71l-0.25,0.71c-0.06,0.17-0.15,0.32-0.27,0.46l-0.2,0.24l0.09,0.29
		c0.01,0.04,0.02,0.13,0,0.28c-0.02,0.1-0.05,0.19,0.02,0.21l-0.84,0.08l0.36,0.75c0.06,0.13,0.07,0.25,0.02,0.41
		c-0.1,0.31-0.18,0.59-0.23,0.85l-0.01,0.19c0.02,0.16,0.02,0.35,0,0.56c-0.01,0.13-0.05,0.24-0.13,0.35c0,0,0,0,0,0l-0.99,0.38
		l0.74,0.49c-0.01,0.01-0.01,0.02-0.02,0.02l-0.36,0.34l0.36,0.38c0,0.08-0.01,0.16-0.03,0.24c-0.03,0.11-0.06,0.23-0.09,0.33
		c-0.05,0.16-0.08,0.33-0.07,0.51c-0.17,0.76-0.27,1.52-0.29,2.27c-0.02,0.71-0.1,1.42-0.25,2.14l-0.04,0.22l0.11,0.19
		c0.1,0.18,0.13,0.33,0.08,0.51c-0.09,0.32-0.18,0.62-0.27,0.9l-0.08,0.25l0.13,0.23c0.25,0.42,0.29,0.79,0.15,1.17l-0.08,0.21
		l0.09,0.21c0.1,0.24,0.18,0.51,0.24,0.81c0.07,0.33,0.13,0.65,0.18,0.98c0.06,0.34,0.12,0.65,0.19,0.95
		c0.08,0.32,0.17,0.6,0.27,0.85c0.13,0.3,0.31,0.58,0.54,0.85c0.09,0.11,0.13,0.23,0.13,0.39l0,0.2l0.13,0.16
		c0.66,0.85,1.35,1.65,2.06,2.39c0.71,0.74,1.51,1.46,2.37,2.13l0,0c0.25,0.2,0.48,0.24,0.66,0.24c0.15,0.11,0.31,0.22,0.49,0.32
		c0.17,0.1,0.35,0.2,0.54,0.3c1.73,0.95,3.58,1.58,5.55,1.89c0.12,0.01,0.26,0.03,0.41,0.06c0.21,0.03,0.41,0.05,0.57,0.05
		c0.19,0,0.37-0.03,0.55-0.08c0.09-0.03,0.19-0.06,0.27-0.07c0.66-0.12,1.32-0.25,1.96-0.39c0.66-0.15,1.32-0.33,1.95-0.56
		l0.21-0.12l0.1-0.12c0.09-0.12,0.14-0.22,0.16-0.32c0.52-0.14,0.99-0.4,1.4-0.77c0.36-0.33,0.71-0.66,1.04-1
		c0.19,0.04,0.39,0.1,0.59,0.2c0.39,0.18,0.79,0.34,1.18,0.46c0.44,0.14,0.87,0.19,1.29,0.16c0.52-0.03,0.98-0.29,1.37-0.76
		c0.05-0.06,0.1-0.12,0.14-0.18c0.2-0.28,0.35-0.6,0.44-0.93c0.08-0.3,0.18-0.59,0.34-1c0.08-0.13,0.14-0.27,0.17-0.41
		c0.06-0.28,0.02-0.58-0.13-0.89c-0.02-0.04-0.04-0.1,0-0.25c0.1-0.54,0.12-1.05,0.07-1.5c-0.05-0.43-0.14-0.85-0.26-1.27
		c-0.11-0.38-0.23-0.77-0.36-1.15c-0.1-0.31-0.18-0.67-0.23-1.06c0.03-0.22-0.03-0.44-0.18-0.64c-0.09-0.12-0.19-0.22-0.26-0.27
		c-0.02-0.42-0.1-0.83-0.25-1.22c-0.16-0.44-0.34-0.88-0.54-1.31c-0.19-0.42-0.39-0.84-0.59-1.27c-0.18-0.36-0.3-0.74-0.37-1.12
		l-0.08-0.31l-0.22-0.11c-0.03-0.07-0.07-0.15-0.12-0.21c0-0.04-0.01-0.08-0.02-0.12c-0.01-0.03-0.02-0.07-0.04-0.12l0.11-0.14
		l-0.2-0.35c-0.55-0.94-1.06-1.89-1.54-2.85c-0.49-0.98-1-1.94-1.52-2.91c-0.53-0.97-1.08-1.92-1.65-2.84
		c-0.58-0.93-1.24-1.84-1.98-2.71c-0.2-0.22-0.42-0.49-0.68-0.79c-0.29-0.34-0.55-0.61-0.81-0.81c-0.17-0.13-0.37-0.26-0.6-0.37
		C236.83,186.08,236.65,185.99,236.54,185.94z M236.18,191.03l1.18,1.18c0.05,0.16,0.12,0.32,0.21,0.43l-0.38,0.69l0.79,0.17
		c0.07,0.01,0.13,0.04,0.22,0.12l0.13,0.32c0.05,0.13,0.12,0.27,0.18,0.41c0.07,0.14,0.17,0.27,0.33,0.42
		c0.02,0.1,0.05,0.18,0.09,0.25l0.25,0.54l-0.04,0.31l0.24,0.21c0.44,0.38,0.78,0.81,1.02,1.26c0.25,0.47,0.42,0.99,0.52,1.55
		l0.1,0.24c0.52,0.72,0.99,1.55,1.4,2.48c0.41,0.93,0.72,1.85,0.93,2.72l0.12,0.24c0.27,0.33,0.46,0.67,0.55,0.99
		c0.11,0.38,0.19,0.77,0.25,1.17c0.07,0.44,0.14,0.87,0.24,1.3c0.08,0.4,0.23,0.78,0.45,1.16c-0.01,0.03-0.02,0.07-0.03,0.1
		c-0.14-0.06-0.28-0.09-0.44-0.11c-0.22-0.02-0.44-0.03-0.65-0.03l-0.55,0.01c-0.12,0-0.23-0.02-0.34-0.07l-0.21-0.08l-0.21,0.07
		c-0.38,0.12-0.77,0.2-1.15,0.23c-0.45,0.04-0.89,0.09-1.32,0.16l-0.29,0.05l-0.14,0.25c-0.04,0.07-0.07,0.11-0.09,0.14
		c-0.03,0.03-0.04,0.05-0.03,0.05c-0.28,0.09-0.53,0.27-0.77,0.56c-0.15,0.18-0.24,0.38-0.27,0.59c-0.02,0.15-0.02,0.3-0.01,0.43
		c0.01,0.1,0.03,0.21,0.05,0.48l-0.06,0.42l0.4,0.19c0.62,0.3,1.24,0.3,1.82,0.01c0.02,0.01,0.04,0.03,0.06,0.04
		c0.01,0.01,0.03,0.02,0.05,0.03c0,0,0,0,0,0c-0.02,0.03-0.05,0.07-0.08,0.1c-0.23,0.28-0.5,0.52-0.82,0.71
		c-0.35,0.22-0.69,0.45-1.01,0.7c-0.31,0.06-0.61,0.13-0.9,0.22c-0.24,0.08-0.48,0.18-0.7,0.3c-0.05-0.02-0.11-0.03-0.17-0.03
		l-0.36,0.02l-0.19,0.16c-0.01,0.01-0.03,0.02-0.05,0.04c-0.32-0.04-0.65-0.06-0.98-0.06c-0.34,0-0.68,0.03-1.02,0.09
		c-0.21-0.1-0.43-0.18-0.65-0.24c-0.25-0.06-0.5-0.12-0.75-0.18c-0.23-0.05-0.44-0.11-0.65-0.18c-0.18-0.06-0.34-0.14-0.52-0.26
		l-0.73-0.19l0.1-0.32l-0.49-0.21c-0.61-0.26-1.2-0.61-1.74-1.04c-0.4-0.31-0.76-0.68-1.07-1.08c-0.3-0.39-0.54-0.83-0.72-1.3
		l-0.06-0.16l-0.63-0.5c-0.02-0.06-0.03-0.11-0.04-0.13c-0.02-0.13-0.05-0.27-0.08-0.41c-0.04-0.16-0.09-0.33-0.16-0.48
		c-0.03-0.08-0.08-0.15-0.13-0.23c0.01-0.06,0.01-0.12,0.01-0.17c0-0.13-0.03-0.26-0.09-0.47l0.16-0.2l-0.15-0.33
		c-0.17-0.38-0.29-0.79-0.35-1.19c-0.06-0.44-0.1-0.87-0.11-1.31c-0.01-0.44,0.01-0.88,0.05-1.32c0.04-0.47,0.07-0.94,0.08-1.41
		c0.01-0.29,0-0.58-0.01-0.87c-0.01-0.26-0.01-0.51,0.02-0.84c0.04-0.13,0.07-0.25,0.06-0.28c0.09-0.35,0.15-0.71,0.2-1.06
		c0.04-0.31,0.04-0.62-0.01-0.93l0.3-0.36l0.02-0.17c0.11-0.87,0.29-1.78,0.55-2.72c0.25-0.9,0.63-1.7,1.16-2.38l0.15-0.19
		l-0.04-0.24c-0.03-0.18,0-0.35,0.08-0.53c0.11-0.24,0.25-0.46,0.41-0.64c0.25-0.3,0.53-0.57,0.83-0.82
		c0.25-0.21,0.51-0.4,0.77-0.57c0.02,0,0.04,0,0.06,0l0.38,0.3l0.38-0.35c0.12-0.11,0.23-0.18,0.34-0.2
		c0.17-0.03,0.35-0.05,0.54-0.04c0.22,0.01,0.44,0.03,0.67,0.05c0.22,0.03,0.45,0.03,0.67,0.02c0.55,0.29,1.07,0.62,1.54,0.99
		C235.32,190.22,235.76,190.62,236.18,191.03z"/>
	<path class="st0" d="M203.66,203.8l-0.19,0.08c-0.22,0.09-0.43,0.16-0.64,0.19l-0.75,0.13c-0.27,0.04-0.54,0.1-0.81,0.17
		c-0.31,0.08-0.63,0.22-0.95,0.4c-0.22,0.13-0.43,0.27-0.64,0.41c-0.18,0.13-0.35,0.24-0.53,0.35c-0.29,0.17-0.55,0.29-0.78,0.36
		l-0.16,0.05l-0.11,0.13c-0.3,0.33-0.52,0.63-0.67,0.92c-0.06,0.1-0.19,0.27-0.52,0.47l-0.29,0.17l-0.08,0.12
		c-0.51,0.84-0.96,1.73-1.34,2.65c-0.37,0.9-0.72,1.84-1.02,2.8c-0.3,0.94-0.58,1.9-0.82,2.86c-0.24,0.95-0.48,1.9-0.7,2.83
		l-0.04,0.15l0.05,0.15c0.12,0.37,0.18,0.74,0.2,1.1c0.01,0.38-0.02,0.79-0.09,1.2l-0.05,0.25l0.16,0.21
		c0.07,0.1,0.12,0.19,0.14,0.28c0.06,0.23,0.15,0.46,0.29,0.66c0,0,0,0,0,0.01c-0.09,0.3-0.05,0.6,0.13,0.88
		c0.1,0.15,0.17,0.32,0.26,0.44l-0.06,0.25c-0.03,0.11-0.04,0.24-0.05,0.39c0,0.2,0.06,0.39,0.18,0.58l0.17,0.26l0.32,0.01
		c0.04,0,0.1,0.01,0.18,0.09c0.15,0.13,0.29,0.27,0.43,0.43l0.47,0.54c0.04,0.04,0.07,0.08,0.11,0.12c-0.24,0.3-0.46,0.61-0.69,0.92
		c-0.29,0.37-0.63,0.72-1.07,0.98c-0.08,0.05-0.16,0.09-0.23,0.13c-0.08,0.04-0.15,0.07-0.22,0.09l-0.44,0.16l0.06,0.45
		c0.02,0.15-0.02,0.26-0.11,0.37c-0.16,0.2-0.36,0.39-0.59,0.56c-0.26,0.2-0.52,0.38-0.79,0.56c-0.35,0.24-0.62,0.51-0.77,0.79
		c-0.17,0.26-0.23,0.55-0.2,0.85c-0.07,0.03-0.17,0.07-0.29,0.11c-0.19,0.06-0.33,0.11-0.43,0.13l-0.21,0.09
		c-0.47,0.33-0.91,0.69-1.29,1.08c-0.37,0.38-0.73,0.77-1.08,1.17l-0.21,0.23c-0.09,0.1-0.19,0.21-0.3,0.31
		c-0.13,0.12-0.25,0.24-0.36,0.35c-0.06,0.06-0.11,0.1-0.12,0.12c-0.15,0.02-0.31,0.08-0.45,0.16c-0.18,0.11-0.32,0.26-0.4,0.46
		c-0.15,0.09-0.31,0.16-0.46,0.21c-0.24,0.08-0.47,0.18-0.68,0.31c-0.16,0.1-0.29,0.21-0.41,0.34l-0.03-0.1
		c-0.06-0.4-0.11-0.83-0.13-1.27c-0.02-0.39,0.03-0.75,0.17-1.11l0.08-0.2l-0.08-0.2c-0.09-0.24-0.15-0.48-0.16-0.72
		c-0.01-0.16-0.02-0.32-0.03-0.48c0.07-0.04,0.14-0.07,0.21-0.11c0.12-0.07,0.24-0.11,0.37-0.14c0.11-0.02,0.16-0.02,0.19-0.01
		l0.91,0.25l-0.14-0.84c0.16-0.09,0.31-0.17,0.45-0.25l0.27-0.16l0.01-0.31c0.01-0.26-0.02-0.51-0.07-0.74
		c-0.11-0.43-0.3-0.83-0.58-1.2c-0.26-0.34-0.56-0.64-0.88-0.89l-0.15-0.12l-0.19-0.01c-0.23-0.01-0.47,0.01-0.76,0.05
		c-0.11-0.6-0.22-1.2-0.32-1.77c-0.12-0.73-0.27-1.47-0.46-2.22c-0.1-0.4-0.21-0.79-0.32-1.17c-0.11-0.38-0.24-0.77-0.37-1.16
		l-0.05-0.15l-0.12-0.1c-0.14-0.12-0.27-0.26-0.39-0.42c-0.14-0.19-0.27-0.38-0.41-0.58c-0.14-0.21-0.28-0.41-0.42-0.6
		c-0.19-0.26-0.42-0.47-0.64-0.58c-0.13-0.08-0.28-0.14-0.45-0.17c-0.05-0.01-0.1-0.02-0.15-0.03l-0.13-0.52l-0.61,0.18
		c-0.26,0.08-0.51,0.14-0.76,0.2c-0.28,0.06-0.56,0.13-0.83,0.21c-0.28,0.08-0.56,0.18-0.82,0.29c-0.3,0.12-0.58,0.3-0.85,0.51
		l-0.32,0.39l0.06,0.12c-0.04,0.03-0.08,0.05-0.12,0.09l-0.25,0.2l0.04,0.31c0.03,0.21,0.01,0.41-0.06,0.61
		c-0.1,0.32-0.16,0.64-0.17,0.96l-0.03,0.65l0.67-0.04c0.28-0.02,0.55,0.01,0.82,0.08c0.42,0.11,0.85,0.12,1.28,0.03
		c0.18-0.04,0.38-0.11,0.58-0.21c0.02,0.01,0.03,0.02,0.05,0.03c0.01,0.06,0.02,0.13,0.03,0.19c0.06,0.26,0.2,0.49,0.4,0.66
		c0.04,0.04,0.07,0.07,0.1,0.15c0.08,0.18,0.14,0.36,0.19,0.56l0.16,0.64c0.18,0.71,0.31,1.43,0.41,2.12
		c0.08,0.57,0.14,1.16,0.17,1.75c-0.46,0.24-0.93,0.49-1.38,0.75c-0.55,0.32-1.11,0.62-1.67,0.92c-0.56,0.29-1.13,0.56-1.71,0.81
		c-0.56,0.24-1.13,0.43-1.71,0.55l-0.24,0.05l-0.13,0.21c-0.11,0.17-0.23,0.28-0.39,0.38c-0.19,0.11-0.4,0.19-0.61,0.24l-0.58,0.07
		l-0.28,0.21l-0.01-0.07c-0.04-0.32-0.1-0.64-0.18-0.97c-0.06-0.23-0.13-0.46-0.23-0.67c-0.06-0.14-0.15-0.28-0.24-0.41
		c0.05-0.23,0.06-0.45,0.04-0.68c-0.02-0.28-0.07-0.56-0.14-0.83c-0.06-0.25-0.13-0.5-0.21-0.75c-0.07-0.22-0.14-0.45-0.2-0.69
		c-0.08-0.31-0.11-0.6-0.11-0.85l-0.05-0.24c-0.22-0.49-0.44-0.96-0.67-1.42c-0.21-0.41-0.37-0.86-0.49-1.33l-0.04-0.17l-0.13-0.12
		c-0.26-0.24-0.47-0.56-0.64-0.96c-0.2-0.49-0.4-0.93-0.6-1.34l-0.11-0.22l-0.24-0.08c-0.12-0.04-0.22-0.11-0.3-0.21
		c-0.1-0.13-0.17-0.27-0.21-0.44c-0.03-0.14-0.04-0.19-0.04-0.19l0.01-0.86l-0.82,0.3c-0.1,0.04-0.16,0.03-0.26-0.03
		c-0.19-0.13-0.33-0.27-0.44-0.43l-0.4-0.43l-0.46,0.17c-0.06-0.03-0.12-0.06-0.17-0.09c-0.15-0.09-0.32-0.15-0.5-0.18l-0.19-0.03
		l-0.17,0.09c-0.09,0.05-0.18,0.08-0.26,0.1c-0.13,0.03-0.26,0.04-0.38,0.04c-0.23-0.01-0.47,0.01-0.7,0.06l-0.19,0.08
		c-0.41,0.25-0.69,0.63-0.79,1.07c-0.09,0.39-0.09,0.78,0.01,1.17c0.06,0.23,0.15,0.46,0.28,0.69l0.1,0.18l0.2,0.08
		c0.23,0.09,0.44,0.19,0.63,0.27l0.2,0.72l0.45,0.03c0.15,0.01,0.29,0.01,0.43,0.01c0.08,0,0.16,0,0.24-0.01
		c0.08,0.07,0.16,0.15,0.23,0.24c0.14,0.17,0.26,0.35,0.38,0.55l0.39,0.64c0.12,0.2,0.27,0.4,0.44,0.58
		c0.11,0.35,0.24,0.72,0.39,1.13c0.17,0.45,0.37,0.85,0.61,1.21c0.26,1.21,0.53,2.41,0.82,3.6c0.27,1.11,0.47,2.26,0.61,3.43
		c-0.14,0.14-0.3,0.26-0.5,0.37c-0.33,0.18-0.68,0.34-1.06,0.49c-0.39,0.15-0.78,0.28-1.18,0.4c-0.34,0.1-0.65,0.19-0.92,0.28
		c-0.2-0.07-0.37-0.11-0.52-0.13c-0.23-0.03-0.52-0.01-0.89,0.07c-0.56,0.12-1.01,0.36-1.33,0.71c-0.31,0.33-0.53,0.76-0.68,1.37
		c-0.01,0.12,0,0.24,0.03,0.35l0.05,0.19c0.05,0.21,0.12,0.42,0.19,0.63c0.07,0.21,0.16,0.42,0.25,0.62l0.16,0.21
		c0.42,0.35,0.94,0.46,1.51,0.34c0.34-0.08,0.67-0.21,0.99-0.41c0.25-0.15,0.49-0.29,0.7-0.4c0.23-0.1,0.47-0.18,0.71-0.24
		c0.27-0.07,0.53-0.13,0.8-0.19c0.42-0.09,0.86-0.19,1.34-0.28c0.33-0.07,0.65-0.16,0.95-0.29c0.01,0.23,0.03,0.46,0.07,0.68
		l0.2,1.06c0.07,0.35,0.12,0.69,0.17,1.02c0.04,0.28,0.04,0.58,0,0.88l0.03,0.28c0.08,0.22,0.12,0.46,0.11,0.72
		c-0.02,0.39,0.02,0.77,0.11,1.14c0.04,0.17,0.11,0.34,0.2,0.52c0,0.56,0.01,1.12,0.03,1.68c0.02,0.61,0.08,1.24,0.18,1.88
		c0.05,0.28,0.11,0.59,0.18,0.93c0.07,0.32,0.13,0.64,0.18,0.96c0.05,0.3,0.07,0.59,0.07,0.89c0,0.25-0.04,0.49-0.12,0.71
		l-0.03,0.34l0.29,0.6c0.06,0.13,0.11,0.27,0.15,0.42c0.06,0.23,0.1,0.44,0.12,0.65c0.03,0.25,0.08,0.51,0.15,0.79
		c0.1,0.4,0.25,0.81,0.46,1.24l0.18,0.21c0.29,0.22,0.62,0.36,0.99,0.43c0.35,0.07,0.72,0.06,1.07-0.02c0.9-0.2,1.28-0.69,1.44-1.07
		c0.2-0.47,0.23-1.01,0.08-1.6c-0.09-0.36-0.2-0.72-0.33-1.09c-0.09-0.25-0.19-0.5-0.31-0.72c0.1-0.23,0.13-0.49,0.06-0.75
		c-0.04-0.14-0.06-0.27-0.08-0.37c-0.01-0.06-0.02-0.12-0.02-0.19l-0.1-0.59l-0.02-0.01c-0.06-0.12-0.13-0.23-0.21-0.33c0,0,0,0,0,0
		c0.04-0.16,0.06-0.32,0.05-0.48c-0.01-0.21-0.03-0.42-0.07-0.63c-0.03-0.17-0.06-0.35-0.09-0.52c0-0.03-0.01-0.06-0.01-0.09
		l0.23-0.18l-0.1-0.41c-0.02-0.08-0.1-0.32-0.36-0.45c0.01-0.09,0.02-0.19,0.03-0.29c0.02-0.33,0.02-0.67,0-1.01l-0.06-0.96
		c-0.05-0.62-0.13-1.24-0.22-1.87c-0.09-0.61-0.17-1.21-0.24-1.81c-0.07-0.6-0.13-1.2-0.18-1.81c-0.04-0.59-0.05-1.2-0.01-1.8
		l0.01-0.2l-0.11-0.16c-0.05-0.07-0.08-0.14-0.1-0.22c-0.02-0.07-0.03-0.14-0.03-0.21c1.51-0.59,3.01-1.22,4.46-1.88
		c1.33-0.6,2.69-1.13,4.07-1.59c-0.01,0.12,0,0.25,0.01,0.38c0.06,0.43,0.16,0.85,0.3,1.26c0.11,0.33,0.17,0.66,0.18,0.95
		c0,0.08-0.02,0.15-0.04,0.21c-0.06,0.17-0.09,0.37-0.09,0.58c0,0.44,0.05,0.88,0.15,1.34c0.09,0.41,0.18,0.82,0.26,1.21
		c0.04,0.22,0.05,0.44,0.04,0.68c-0.01,0.3,0,0.59,0.03,0.88c0.03,0.28,0.09,0.62,0.2,1.01c0.07,0.27,0.09,0.51,0.06,0.7l0.02,0.26
		c0.19,0.63,0.32,1.28,0.39,1.92c0.07,0.7,0.2,1.4,0.37,2.09c0.1,0.39,0.21,0.75,0.35,1.06c-0.12,0.46-0.12,0.91-0.01,1.35
		c0.17,0.69,0.56,1.23,1.16,1.6c0.61,0.38,1.29,0.48,2,0.3l0.16-0.04l0.12-0.12c0.19-0.19,0.33-0.42,0.44-0.67
		c0.05-0.1,0.11-0.18,0.19-0.25l0.31-0.25l-0.13-0.38c-0.06-0.17-0.1-0.35-0.12-0.53c-0.03-0.25-0.07-0.49-0.13-0.73
		c-0.07-0.27-0.18-0.54-0.34-0.81c0.04-0.67-0.02-1.35-0.18-2.02c-0.13-0.51-0.31-0.96-0.54-1.35c0.04-0.56,0.04-1.11,0-1.66
		c-0.04-0.59-0.09-1.19-0.16-1.64l0-0.28c-0.05-0.22-0.18-0.39-0.36-0.5c-0.03-0.13-0.05-0.25-0.07-0.38l0.02,0.01
		c0.38,0.12,0.78,0.19,1.2,0.22c0.32,0.02,0.63,0.07,0.94,0.15l0.4,0.11l0.55-0.71c0.09-0.11,0.15-0.18,0.25-0.24
		c0.08-0.03,0.18-0.08,0.29-0.15c0.32-0.19,0.63-0.42,0.91-0.69c0.21-0.2,0.44-0.37,0.67-0.51l0.24-0.14l0.16-0.13
		c0.61-0.75,1.24-1.49,1.86-2.2c0.62-0.7,1.28-1.39,1.98-2.03c0.67-0.6,1.31-1.2,1.92-1.82c0.6-0.6,1.21-1.21,1.84-1.82
		c0.38-0.38,0.82-0.77,1.3-1.18c0.51-0.44,0.89-0.92,1.14-1.43c0.55-0.4,1.04-0.86,1.46-1.36c0.42-0.49,0.86-0.97,1.33-1.45
		c0.48-0.52,0.96-1.02,1.45-1.5c0.51-0.5,1-1.01,1.48-1.54c0.48-0.54,0.98-1.08,1.49-1.61c0.48-0.49,1.03-0.93,1.64-1.29
		c0.16-0.1,0.32-0.18,0.5-0.27c0.17-0.08,0.34-0.15,0.52-0.22l0.15-0.06l0.1-0.12c0.16-0.2,0.33-0.38,0.52-0.56
		c0.1-0.1,0.21-0.21,0.31-0.32c0.04,0.26,0.08,0.52,0.12,0.78l0.07,0.21c0.19,0.32,0.31,0.63,0.37,0.92
		c0.06,0.33,0.11,0.7,0.15,1.16c0.02,0.09,0.03,0.18,0.04,0.28c0.01,0.15,0.04,0.3,0.09,0.48c0.12,0.35,0.22,0.69,0.32,1.02
		c0.09,0.3,0.16,0.62,0.21,0.96c0.12,0.75,0.18,1.52,0.18,2.27c-0.01,0.8,0.01,1.6,0.03,2.41l0.04,1.5
		c0.01,0.08,0.02,0.15,0.03,0.22c0.01,0.07,0.01,0.14,0.01,0.21c0,0.02-0.01,0.16-0.14,0.65c-0.1,0.38-0.21,0.78-0.33,1.22
		s-0.25,0.86-0.37,1.27l-0.21,0.69c-0.3,0.22-0.54,0.48-0.71,0.79c-0.17,0.32-0.32,0.65-0.44,1.01c-0.11,0.32-0.23,0.64-0.35,0.95
		c-0.1,0.27-0.24,0.5-0.41,0.71l-0.15,0.18l0.02,0.23c0.03,0.34,0.08,0.68,0.14,1c0.05,0.26,0.05,0.53,0.02,0.79l-0.03,0.26
		l0.18,0.2c0.79,0.86,1.78,1.41,2.94,1.64l0.23,0.05l0.2-0.12c0.04-0.03,0.09-0.05,0.14-0.07c0.09-0.04,0.18-0.08,0.26-0.13
		c0.4-0.24,0.71-0.5,0.92-0.77c0.03-0.04,0.06-0.07,0.08-0.11c0.16-0.23,0.3-0.48,0.4-0.74c0.11-0.27,0.21-0.57,0.29-0.87
		c0.06-0.23,0.14-0.47,0.23-0.72c0.24-0.27,0.4-0.55,0.46-0.84c0.05-0.2,0.12-0.41,0.29-0.76c0.08-0.13,0.13-0.24,0.16-0.35
		c0.07-0.28,0-0.57-0.19-0.81c0.02-0.04,0.04-0.09,0.07-0.14c0.1-0.18,0.17-0.37,0.22-0.59c0.06-0.3,0.09-0.61,0.09-0.94
		c0-0.28,0.02-0.55,0.04-0.78l0.17-0.88c0.03-0.24-0.03-0.48-0.16-0.73c-0.02-0.03-0.04-0.07-0.05-0.1c0.16-0.4,0.24-0.8,0.24-1.21
		c0-0.42-0.03-0.85-0.09-1.27c-0.05-0.39-0.09-0.77-0.12-1.15c-0.02-0.32,0.01-0.65,0.1-0.98l0.06-0.22l-0.1-0.2
		c-0.16-0.31-0.25-0.61-0.28-0.92c-0.04-0.42-0.16-0.83-0.38-1.21l-0.05-1.18c-0.01-0.43-0.11-0.89-0.28-1.36
		c0.03-0.73,0-1.46-0.1-2.18c-0.1-0.74-0.23-1.48-0.39-2.22c-0.15-0.73-0.31-1.46-0.48-2.18c-0.16-0.69-0.27-1.4-0.34-2.12
		l-0.09-0.26c-0.36-0.56-0.63-1.18-0.83-1.83c-0.22-0.75-0.55-1.48-0.97-2.15c-0.9-1.42-2.1-2.65-3.56-3.64
		c-1.45-0.99-3.04-1.69-4.71-2.09L203.66,203.8z M209.24,215.02c-0.08,0.01-0.14,0-0.21-0.05c-0.18-0.12-0.35-0.24-0.51-0.36
		l-0.11-0.08l-0.14-0.03c-0.32-0.07-0.58,0.09-0.67,0.14c-0.32,0.19-0.59,0.42-0.8,0.7c-0.12,0.16-0.27,0.29-0.45,0.4
		c-0.12,0.07-0.24,0.1-0.36,0.08l-0.64-0.09l-0.04,0.63c0,0.06-0.02,0.14-0.11,0.23c-0.15,0.16-0.32,0.32-0.5,0.48
		c-0.21,0.18-0.41,0.37-0.6,0.56c-0.13,0.13-0.23,0.27-0.31,0.42c-0.05,0.02-0.11,0.04-0.16,0.07c-0.11,0.06-0.21,0.16-0.33,0.3
		l-0.06,0.07l-0.03,0.08c-0.05,0.11-0.1,0.21-0.17,0.31l-0.16,0.23c-0.43,0.23-0.78,0.55-1.01,0.9c-0.18,0.27-0.38,0.55-0.6,0.83
		c-0.19,0.11-0.36,0.24-0.5,0.4c-0.14,0.16-0.28,0.32-0.4,0.49c-0.1,0.14-0.22,0.28-0.34,0.43c-0.09,0.1-0.2,0.19-0.38,0.3
		c-0.09,0.03-0.17,0.07-0.24,0.12l-0.14,0.12c-0.22,0.26-0.41,0.53-0.55,0.82c-0.07,0.13-0.17,0.24-0.32,0.34
		c-0.15,0.01-0.3,0.06-0.46,0.15c-0.19,0.11-0.31,0.3-0.37,0.55c-0.03,0.11-0.05,0.23-0.08,0.36c-0.01,0.05-0.02,0.11-0.04,0.18
		c-0.02,0-0.03,0-0.05,0.01c0-0.15-0.05-0.33-0.17-0.53c-0.08-0.12-0.22-0.28-0.47-0.37c0.01,0,0.02-0.01,0.03-0.03l-0.16-0.83
		c-0.02-0.13-0.05-0.25-0.08-0.35c-0.02-0.84-0.04-1.63-0.05-2.38c-0.01-0.74,0.03-1.49,0.11-2.21c0.08-0.7,0.23-1.43,0.43-2.15
		c0.2-0.71,0.5-1.44,0.9-2.2l0.73-1.44c0.25-0.48,0.52-0.95,0.81-1.41c0.28-0.45,0.61-0.87,0.96-1.26c0.33-0.37,0.7-0.68,1.09-0.91
		c0.5-0.3,1.08-0.48,1.72-0.55c0.31,0.13,0.61,0.24,0.91,0.33c0.31,0.09,0.64,0.17,0.98,0.22c0.31,0.2,0.59,0.38,0.84,0.52
		c0.26,0.15,0.51,0.29,0.74,0.43c0.2,0.12,0.39,0.28,0.58,0.47c0.19,0.19,0.4,0.47,0.63,0.83c0.2,0.31,0.39,0.62,0.58,0.95
		c0.2,0.34,0.45,0.64,0.75,0.92c0.3,0.77,0.55,1.56,0.74,2.36c-0.08-0.09-0.17-0.19-0.26-0.28l-0.21-0.23L209.24,215.02z"/>
	<path class="st0" d="M149.45,241.6c0.46-0.07,0.91-0.23,1.34-0.49c0.61-0.37,0.97-0.95,1.03-1.66c0.02-0.2,0-0.42-0.05-0.68
		c-0.05-0.27-0.14-0.51-0.27-0.72c-0.18-0.27-0.46-0.48-0.87-0.63c-0.07-0.03-0.14-0.06-0.21-0.09c0.19-0.68,0.36-1.37,0.49-2.06
		c0.16-0.8,0.34-1.6,0.52-2.37c0.03-0.08,0.07-0.22,0.13-0.44c0.05-0.19,0.11-0.4,0.17-0.6c0.07-0.23,0.12-0.43,0.17-0.61
		c0.05-0.22,0.08-0.35,0.08-0.4c0.01-0.17,0-0.33-0.05-0.46c0.23-0.25,0.36-0.56,0.39-0.94c0.02-0.24,0.01-0.47-0.04-0.69
		c-0.02-0.09-0.03-0.17-0.05-0.25l0.37-0.15l-0.06-0.45c-0.06-0.42-0.11-0.85-0.16-1.29c-0.05-0.43-0.08-0.86-0.1-1.3
		c-0.02-0.18-0.02-0.37-0.01-0.57c0.01-0.26,0-0.5-0.04-0.79c-0.04-0.15-0.11-0.27-0.19-0.36c0.02-0.08,0.04-0.17,0.05-0.26
		c0.04-0.45-0.03-0.92-0.21-1.4c-0.14-0.38-0.24-0.75-0.32-1.11l-0.13-0.26c-0.17-0.2-0.36-0.41-0.56-0.64
		c-0.22-0.24-0.46-0.47-0.72-0.69c-0.27-0.22-0.56-0.42-0.86-0.57c-0.33-0.17-0.69-0.27-1.07-0.31c-0.48-0.04-0.97-0.02-1.44,0.06
		c-0.41,0.07-0.82,0.13-1.21,0.19l-0.22,0.03l-0.14,0.16c-0.11,0.12-0.21,0.21-0.19,0.24l-0.53-0.05l-0.2,0.31
		c-0.06,0.09-0.14,0.17-0.26,0.21c-0.2,0.08-0.41,0.14-0.63,0.18l-0.16,0.03l-0.12,0.11c-0.37,0.33-0.76,0.64-1.18,0.93
		c-0.44,0.3-0.88,0.59-1.31,0.88c-0.44,0.29-0.88,0.59-1.3,0.88c-0.36,0.25-0.72,0.53-1.07,0.83c-0.09,0-0.17,0.02-0.24,0.04
		l-0.13-0.15l-0.46,0.44c-0.36,0.34-0.71,0.66-1.06,0.95c-0.28,0.24-0.64,0.4-1.06,0.5l-0.37,0.18l-0.12,0.27
		c-0.07,0.07-0.14,0.13-0.1,0.12c-0.32,0.15-0.65,0.28-1,0.41c-0.35,0.13-0.71,0.25-1.08,0.35l-0.23,0.07l-0.12,0.2
		c-0.09,0.15-0.2,0.27-0.33,0.36c-0.17,0.11-0.34,0.21-0.52,0.29c-0.2,0.09-0.41,0.17-0.63,0.24c-0.26,0.09-0.51,0.19-0.79,0.34
		c-0.1,0.06-0.21,0.14-0.34,0.24l-0.31,0.25c-0.06,0.05-0.13,0.09-0.13,0.12l-0.86-0.08l0.08,0.71c0.04,0.36,0.05,0.73,0.04,1.09
		c-0.02,0.5,0.1,0.98,0.34,1.43l0.3,0.47l0.51-0.19c0.06,0,0.13,0,0.19,0.01c0.28,0.03,0.55,0.07,0.82,0.13l1.4,0.3l0.18-0.48
		c0.06-0.15,0.13-0.3,0.21-0.43c0.04-0.06,0.08-0.13,0.12-0.18c0.12-0.01,0.22-0.04,0.31-0.07l0.16,0.19l0.47-0.43
		c0.46-0.42,0.96-0.79,1.49-1.09c0.58-0.33,1.16-0.66,1.75-1l0.56-0.35c0.21-0.13,0.4-0.27,0.57-0.41l0.37-0.28l0.53,0.32l0.24-0.69
		c0.08-0.23,0.18-0.29,0.22-0.31c0.24-0.14,0.43-0.33,0.56-0.57c0.17-0.04,0.32-0.1,0.45-0.17c0.21-0.12,0.41-0.27,0.58-0.46
		c0.14-0.16,0.26-0.32,0.4-0.5c0.04-0.05,0.08-0.11,0.12-0.16l0.43,0.04l0.16-0.09c0.55-0.3,1.07-0.67,1.56-1.08
		c0.44-0.38,0.89-0.73,1.36-1.05c0.44-0.3,0.91-0.56,1.4-0.75c0.45-0.17,0.96-0.23,1.54-0.18c0.06,0,0.12,0.01,0.18,0.02
		c0.11,0.33,0.28,0.64,0.5,0.93c0.19,0.25,0.3,0.51,0.36,0.84c0.06,0.28,0.09,0.58,0.1,0.9l0.03,1.04c0.01,0.35,0.03,0.7,0.06,1.04
		c0.03,0.3,0.07,0.6,0.15,0.88c-0.27,0.75-0.48,1.58-0.63,2.48c-0.15,0.93-0.31,1.87-0.47,2.81c-0.16,0.91-0.37,1.8-0.62,2.63
		c-0.21,0.7-0.54,1.33-0.96,1.87c-0.22,0.05-0.44,0.13-0.65,0.23l-0.65,0.33c-0.2,0.1-0.39,0.19-0.59,0.26
		c-0.13,0.05-0.27,0.06-0.44,0.05c-0.04,0-0.13-0.02-0.25-0.06l-0.42-0.14l-0.26,0.35c-0.06,0.08-0.18,0.2-0.5,0.25
		c-0.34,0.06-0.64,0.08-0.88,0.05l-0.66-0.22l-0.27,0.43c-0.05,0.07-0.08,0.09-0.11,0.1c-0.15,0.05-0.32,0.08-0.49,0.11
		c-0.23,0.03-0.46,0.08-0.67,0.15c-0.17,0.05-0.33,0.14-0.47,0.24c-0.01,0-0.03,0-0.04,0c-0.48-0.04-0.93,0.02-1.33,0.2
		c-0.22,0.1-0.43,0.13-0.74,0.09l-0.55-0.32l-0.3,0.55c-0.07,0.03-0.15,0.06-0.26,0.08l-0.45,0.1c-0.15,0.04-0.29,0.1-0.41,0.17
		c-0.62,0.01-1.25,0.09-1.86,0.25c-0.64,0.16-1.26,0.33-1.88,0.52c-0.59,0.18-1.19,0.33-1.8,0.45c-0.56,0.12-1.15,0.15-1.74,0.09
		l-0.49-0.07l-0.11,0.5c-0.06,0.05-0.13,0.1-0.21,0.15c-0.13,0.08-0.25,0.17-0.35,0.27c-0.15,0.14-0.27,0.33-0.35,0.56l-0.08,0.23
		l0.11,0.22c0.08,0.16,0.14,0.32,0.19,0.49c0.07,0.24,0.16,0.48,0.28,0.71c0.13,0.25,0.29,0.48,0.49,0.67
		c0.24,0.23,0.56,0.37,0.94,0.44l0.25,0.04l0.2-0.15c0.11-0.08,0.23-0.13,0.37-0.16c0.19-0.04,0.39-0.07,0.6-0.08
		c0.24-0.02,0.49-0.05,0.73-0.08c0.23-0.03,0.45-0.1,0.65-0.19c0.09,0.02,0.19,0.04,0.29,0.05c0.22,0.02,0.43,0,0.63-0.05
		c0.15-0.04,0.28-0.1,0.41-0.18c0.37,0.03,0.77,0,1.18-0.1c0.37-0.09,0.72-0.2,1.03-0.32c0.11,0.03,0.23,0.05,0.35,0.06
		c0.33,0.03,0.67-0.03,1-0.18c0.21-0.1,0.41-0.2,0.59-0.31c0.6-0.04,1.2-0.13,1.78-0.25c0.63-0.13,1.24-0.3,1.85-0.49l0.67-0.23
		c0.2-0.07,0.39-0.12,0.61-0.16c0.23-0.06,0.46-0.09,0.7-0.1c0.31-0.01,0.63-0.06,0.9-0.13c0.55-0.1,1.1-0.22,1.64-0.36
		c0.27-0.07,0.55-0.14,0.83-0.2c-0.03,0.36-0.09,0.73-0.17,1.12c-0.07,0.34-0.2,0.65-0.38,0.92l-0.19,1.42
		c-0.39,0.67-0.68,1.39-0.88,2.15c-0.17,0.64-0.36,1.28-0.59,1.91c-0.84,0.38-1.72,0.7-2.61,0.95c-1.01,0.28-2.01,0.57-3.01,0.87
		c-0.52,0.16-1.02,0.33-1.5,0.52c-0.41,0.16-0.82,0.31-1.23,0.45c-0.1-0.05-0.23-0.09-0.4-0.11l-0.3-0.02l-0.2,0.23
		c-0.04,0.05-0.09,0.08-0.15,0.1c-0.14,0.05-0.29,0.1-0.45,0.15c-0.19,0.05-0.37,0.11-0.55,0.17c-0.16,0.06-0.3,0.13-0.43,0.21
		c-0.42,0.03-0.83,0.11-1.22,0.24c-0.4,0.13-0.79,0.28-1.18,0.43c-0.37,0.15-0.75,0.28-1.13,0.41c-0.32,0.11-0.66,0.16-1.01,0.16
		l-0.27,0l-0.18,0.2c-0.09,0.1-0.21,0.18-0.36,0.22c-0.23,0.07-0.47,0.13-0.73,0.17c-0.3,0.05-0.6,0.11-0.89,0.18
		c-0.28,0.07-0.53,0.18-0.75,0.34c-0.25,0.01-0.49,0.05-0.72,0.11c-0.27,0.07-0.53,0.16-0.78,0.26c-0.22,0.08-0.44,0.16-0.67,0.22
		c-0.14,0.04-0.29,0.07-0.45,0.1c-0.14-0.08-0.3-0.13-0.46-0.17l-1.57-0.36l0.23,0.59c-0.46-0.04-0.71,0.21-0.79,0.33l-0.07,0.1
		l-0.03,0.12c-0.03,0.16-0.06,0.32-0.09,0.5c-0.02,0.17-0.04,0.35-0.06,0.52l0,0c-0.01,0.11-0.01,0.23-0.01,0.35
		c0,0.13,0.01,0.25,0.02,0.37l0.1,0.45l0.53,0.02c0.08,0.22,0.17,0.44,0.28,0.67l0.14,0.32l0.35,0.03c0.16,0.02,0.32,0.05,0.47,0.1
		c0.2,0.07,0.41,0.13,0.63,0.19l0.25,0.07l0.22-0.13c0.53-0.31,1.08-0.55,1.64-0.71c0.55-0.16,1.16-0.24,1.8-0.25l0.54-0.01
		l0.03-0.35c0.28,0.02,0.55-0.06,0.79-0.24c0.09,0.03,0.19,0.05,0.3,0.06c0.25,0.02,0.51-0.01,0.76-0.09
		c0.19-0.06,0.38-0.14,0.58-0.22c0.16-0.07,0.32-0.13,0.48-0.18c0.11-0.03,0.21-0.05,0.3-0.04c0.12,0.01,0.16,0.03,0.16,0.03
		l0.36,0.12l0.26-0.27c0.05-0.05,0.1-0.11,0.13-0.16l0.52,0.02l0.02-0.22c0.42-0.15,0.81-0.29,1.17-0.4
		c0.42-0.14,0.93-0.26,1.5-0.34l0.6-0.07l-0.04-0.22c0.24,0.01,0.47-0.02,0.69-0.08c0.22-0.06,0.43-0.13,0.63-0.2
		c0.16-0.06,0.33-0.12,0.5-0.17c0.11-0.03,0.21-0.05,0.42-0.01l0.32,0.19l0.31-0.19c0.19-0.12,0.4-0.21,0.61-0.27
		c0.25-0.07,0.51-0.15,0.77-0.21c0.28-0.07,0.55-0.15,0.82-0.23c0.21-0.07,0.42-0.16,0.61-0.27c0.1,0.05,0.22,0.08,0.35,0.09
		l0.42,0.04l0.17-0.37c0.06-0.13,0.15-0.22,0.28-0.28c0.12-0.06,0.24-0.09,0.37-0.09c-0.01,0.16-0.01,0.31,0,0.47l0.03,0.6
		c-0.02,0.02-0.04,0.03-0.07,0.04c-0.19,0.11-0.44,0.33-0.56,0.76l-0.05,0.18l0.07,0.18c0.11,0.29,0.23,0.58,0.35,0.87
		c0.13,0.33,0.3,0.63,0.5,0.9c0.21,0.3,0.47,0.55,0.78,0.75c0.33,0.21,0.72,0.34,1.18,0.39c0.33,0.03,0.59,0.01,0.81-0.06
		c0.2-0.06,0.37-0.15,0.52-0.25l0.28-0.21c0.03-0.02,0.1-0.06,0.24-0.11l0.45-0.14l-0.05-0.46c-0.02-0.2-0.03-0.4-0.04-0.6
		c-0.01-0.19-0.01-0.38,0.01-0.57c0.01-0.15,0.04-0.3,0.09-0.43c0.03-0.1,0.1-0.2,0.18-0.29l0.22-0.23l-0.08-0.31
		c-0.02-0.07-0.03-0.13-0.03-0.19c0-0.09,0-0.19,0.01-0.28c0.04-0.48,0.15-0.95,0.32-1.41c0.15-0.41,0.27-0.82,0.36-1.23
		c0.22-0.04,0.43-0.11,0.64-0.2c0.3-0.13,0.6-0.29,0.89-0.48l0.79-0.49c0.21-0.13,0.44-0.23,0.69-0.29l0.25-0.07l0.12-0.22
		c0.22-0.4,0.34-0.82,0.38-1.24c0.06-0.77-0.23-1.46-0.88-2.06l-0.21-0.15l-0.21-0.02c-0.43-0.04-0.87-0.01-1.29,0.08
		c-0.12,0.02-0.24,0.04-0.35,0.05c0.12-0.44,0.22-0.89,0.31-1.34l0.39-2.03c0.13-0.66,0.28-1.3,0.45-1.94
		C149.05,242.6,149.23,242.1,149.45,241.6z"/>
	<path class="st0" d="M102.52,247.84c0.24,0.02,0.49,0.08,0.74,0.17c0.14,0.05,0.24,0.1,0.31,0.13l0.29,0.18l0.31-0.15
		c0.12-0.06,0.25-0.08,0.43-0.08c0.25,0.01,0.52,0.02,0.79,0.06c0.31,0.04,0.62,0.07,0.94,0.08c0.2,0.01,0.4,0,0.59-0.02
		c0.1,0.09,0.23,0.16,0.37,0.22c0.32,0.13,0.69,0.16,1.08,0.11c0.19-0.02,0.35-0.01,0.6,0.11l0.26,0.69l0.63-0.4
		c0.11-0.07,0.24-0.1,0.4-0.1c0.21,0.01,0.4,0.04,0.56,0.1c0.08,0.03,0.15,0.06,0.24,0.13l0.51,0.81l0.54-0.78
		c0.12-0.02,0.23-0.02,0.36-0.01l0.56,0.07c0.14,0.02,0.28,0.03,0.4,0.03c0.08,0.06,0.16,0.1,0.25,0.13
		c0.37,0.14,0.75,0.21,1.14,0.22c0.25,0,0.48,0.05,0.7,0.13c0.06,0.02,0.11,0.05,0.16,0.07c0.06,0.03,0.12,0.07,0.18,0.11l0.18,0.11
		l0.21-0.02c0.6-0.05,1.13-0.29,1.56-0.72c0.16-0.16,0.31-0.33,0.44-0.52c0.18-0.25,0.32-0.52,0.44-0.81
		c0.15-0.37,0.24-0.79,0.28-1.24l0.02-0.29l-0.22-0.2c-0.27-0.25-0.5-0.49-0.69-0.72c-0.26-0.33-0.62-0.6-1.08-0.82l-0.49-0.24
		l-0.29,0.45c-0.04,0.05-0.06,0.08-0.08,0.1c-0.56-0.14-1.13-0.23-1.69-0.25c-0.59-0.03-1.19-0.04-1.79-0.04
		c-0.58,0-1.15-0.01-1.73-0.04c-0.54-0.03-1.07-0.11-1.59-0.26l-0.56-0.11l-0.11,0.31c-0.02,0-0.04,0-0.06,0
		c-0.06-0.03-0.11-0.05-0.17-0.07l-0.27-0.1c-0.42-0.16-0.87-0.26-1.33-0.31c-0.36-0.03-0.72-0.11-1.07-0.23l-0.32-0.11l-0.26,0.21
		c-0.01,0.01-0.06,0.05-0.19,0.05c-0.15,0-0.28-0.02-0.39-0.06c0.03-0.11,0.06-0.21,0.1-0.3c0.18-0.46,0.4-0.9,0.66-1.33
		c0.27-0.43,0.5-0.89,0.69-1.35c0.18-0.16,0.34-0.36,0.47-0.59c0.14-0.25,0.27-0.51,0.37-0.78c0.09-0.23,0.19-0.45,0.29-0.65
		c0.08-0.17,0.15-0.24,0.19-0.26l0.13-0.09l0.06-0.14c0.41-0.94,0.89-1.84,1.44-2.69c0.57-0.88,1.1-1.81,1.57-2.75
		c0.08-0.14,0.17-0.33,0.27-0.55c0.08-0.19,0.18-0.38,0.29-0.57c0.11-0.18,0.22-0.34,0.34-0.48c0.08-0.1,0.13-0.13,0.13-0.13
		l0.29-0.09l0.09-0.28c0.18-0.55,0.39-1.09,0.63-1.61c0.26-0.55,0.5-1.11,0.73-1.69c0.23-0.58,0.39-1.17,0.5-1.74
		c0.22-0.1,0.37-0.29,0.41-0.5l0.17-0.17l-0.21-0.26c0.01-0.09,0.03-0.13,0.04-0.16c0.05-0.13,0.09-0.16,0.09-0.16l0.56-0.35
		l-0.42-0.51c-0.04-0.04-0.09-0.1-0.03-0.29c0.1-0.33,0.18-0.62,0.24-0.88l0.01-0.21c-0.04-0.27-0.09-0.5-0.16-0.68
		c0,0,0-0.05,0.05-0.16l0.14-0.3l-0.19-0.28c-0.11-0.16-0.2-0.31-0.27-0.46c-0.05-0.11-0.07-0.22-0.08-0.33l0-0.22l-0.15-0.17
		c-0.1-0.1-0.19-0.18-0.29-0.24c-0.07-0.04-0.17-0.09-0.27-0.13c-0.22-0.09-0.47-0.11-0.78-0.06c-0.01-0.01-0.01-0.02-0.02-0.03
		c-0.15-0.17-0.29-0.28-0.43-0.33c-0.26-0.1-0.55-0.13-0.86-0.08c-0.29,0.04-0.54,0.13-0.72,0.25c-0.2,0.12-0.38,0.31-0.58,0.65
		c-0.14,0.22-0.27,0.4-0.34,0.53c-0.09,0.14-0.19,0.27-0.29,0.4c-0.16,0.19-0.28,0.4-0.41,0.73l-0.1,0.25l0.13,0.24
		c0.21,0.37,0.48,0.69,0.81,0.95c0.12,0.09,0.22,0.2,0.3,0.32c-0.05,0.09-0.09,0.19-0.13,0.29c-0.11,0.27-0.14,0.58-0.09,0.91
		c-0.23,0.52-0.41,1.04-0.53,1.57c-0.12,0.52-0.28,1.04-0.48,1.56c-0.02,0.05-0.04,0.09-0.07,0.13c-0.06,0.07-0.12,0.16-0.26,0.33
		l-0.9,1.6c-0.54,0.96-1.06,1.93-1.55,2.9c-0.47,0.93-1.04,1.81-1.69,2.64l-0.1,0.13l-0.02,0.16c-0.01,0.08-0.02,0.15-0.01,0.24
		l-0.22,0.07l-0.23,0.21l-0.05,0.13c-0.08,0.21-0.09,0.42-0.01,0.61c-0.56,0.94-1.11,1.93-1.62,2.94c-0.51,0.99-1.12,1.95-1.82,2.83
		l-0.1,0.13l-0.02,0.16c-0.02,0.16-0.04,0.34-0.04,0.53c0,0.02,0,0.05-0.01,0.07c-0.49,0.04-0.97,0.05-1.45,0.03
		c-0.62-0.03-1.25-0.07-1.88-0.14c-0.64-0.07-1.27-0.14-1.9-0.23c-0.53-0.07-1.05-0.12-1.58-0.16c-0.05-0.05-0.11-0.1-0.2-0.14
		l-0.02-1.15l-1.02,1.07c-0.04,0.04-0.08,0.06-0.13,0.07c-0.15,0.02-0.32,0.01-0.5-0.01c-0.24-0.03-0.46-0.05-0.68-0.06
		c-0.13-0.01-0.27,0-0.4,0.01c-0.1-0.08-0.2-0.14-0.32-0.18c-0.26-0.1-0.55-0.14-0.85-0.11c-0.08,0.01-0.16,0.01-0.24,0.01
		c-0.11-0.14-0.22-0.28-0.33-0.41c-0.13-0.16-0.24-0.34-0.33-0.53l-0.36-0.73l-0.61,0.54c-0.12,0-0.25-0.02-0.39-0.05
		c-0.17-0.04-0.33-0.08-0.49-0.12c-0.25-0.07-0.51-0.08-0.78-0.03l-0.35,0.06l-0.11,0.33c-0.11,0.34-0.23,0.67-0.36,0.99
		c-0.16,0.42-0.22,0.86-0.16,1.3l0.03,0.27l0.24,0.15c0.16,0.1,0.28,0.21,0.36,0.31c0.11,0.15,0.2,0.29,0.29,0.44
		c0.12,0.21,0.28,0.41,0.46,0.58c0.21,0.21,0.49,0.38,0.88,0.53c0.56,0.21,1.14,0.35,1.72,0.39c0.46,0.04,0.91,0.14,1.35,0.31
		l0.17,0.06l0.23,0.19l0.29-0.07c0.33-0.08,0.66-0.11,0.99-0.1c0.32,0.01,0.63,0.07,0.98,0.21l0.16,0.07l0.17-0.03
		c0.46-0.08,0.93-0.1,1.4-0.06c0.51,0.05,1.02,0.12,1.54,0.22c0.54,0.1,1.08,0.18,1.61,0.24c0.51,0.06,1.02,0.07,1.52,0.02
		c0.19,0.08,0.36,0.12,0.53,0.14c0.18,0.02,0.35,0.03,0.52,0.02c0.17,0,0.34-0.02,0.51-0.05c0.06-0.01,0.11-0.01,0.16,0.01
		l0.66,0.18C101.89,247.78,102.21,247.81,102.52,247.84z"/>
	<path class="st0" d="M61.54,228.37C61.54,228.37,61.54,228.37,61.54,228.37c0.06,0.07,0.14,0.14,0.22,0.2
		c0.2,0.15,0.44,0.26,0.7,0.32c0.2,0.05,0.4,0.08,0.61,0.12c0.17,0.02,0.34,0.06,0.5,0.1c0.11,0.03,0.2,0.07,0.27,0.12
		c0.1,0.07,0.12,0.1,0.12,0.1l0.24,0.3l0.38-0.09c0.07-0.02,0.13-0.04,0.2-0.07l0.43,0.28l0.13-0.16c0.45,0.09,0.85,0.18,1.22,0.27
		c0.43,0.1,0.93,0.27,1.46,0.5l0.55,0.24l0.09-0.2c0.2,0.13,0.41,0.22,0.63,0.29c0.22,0.07,0.44,0.12,0.64,0.16
		c0.17,0.03,0.35,0.07,0.52,0.12c0.11,0.03,0.21,0.07,0.36,0.21l0.17,0.33l0.38,0c0.23,0,0.45,0.03,0.67,0.09
		c0.25,0.07,0.51,0.14,0.77,0.23c0.28,0.09,0.55,0.16,0.82,0.23c0.22,0.05,0.44,0.08,0.67,0.09c0.06,0.09,0.14,0.17,0.24,0.25
		l0.34,0.26l0.36-0.23c0.12-0.08,0.25-0.11,0.39-0.09c0.13,0.01,0.25,0.05,0.36,0.11c-0.1,0.13-0.19,0.26-0.26,0.39l-0.3,0.52
		c-0.03,0-0.05,0-0.07,0c-0.32-0.01-0.63,0.1-0.9,0.35l-0.14,0.13l-0.04,0.18c-0.07,0.3-0.13,0.61-0.18,0.91
		c-0.06,0.34-0.09,0.69-0.07,1.02c0.02,0.36,0.1,0.7,0.25,1.03c0.16,0.35,0.43,0.67,0.8,0.94c0.26,0.2,0.5,0.32,0.72,0.37
		c0.2,0.05,0.4,0.07,0.66,0.05l0.28-0.02c0.03,0,0.11,0,0.27,0.03l0.46,0.11l0.21-0.41c0.09-0.18,0.19-0.35,0.29-0.52
		c0.1-0.16,0.2-0.32,0.32-0.47c0.1-0.12,0.2-0.23,0.31-0.31c0.08-0.07,0.19-0.11,0.32-0.15l0.31-0.08l0.1-0.29
		c0.02-0.07,0.05-0.13,0.09-0.18c0.05-0.08,0.1-0.15,0.16-0.23c0.29-0.38,0.64-0.72,1.05-1.02c0.35-0.26,0.68-0.54,0.99-0.85
		c0.21,0.08,0.43,0.14,0.65,0.17c0.33,0.04,0.67,0.07,1.02,0.06l0.94,0c0.25,0,0.49,0.04,0.75,0.11l0.25,0.07l0.22-0.12
		c0.4-0.22,0.74-0.51,1-0.85c0.48-0.6,0.6-1.35,0.38-2.18l-0.1-0.23l-0.17-0.13c-0.35-0.26-0.73-0.46-1.14-0.61
		c-0.11-0.04-0.22-0.09-0.33-0.14c0.34-0.31,0.68-0.63,0.99-0.96l1.45-1.5c0.47-0.48,0.95-0.95,1.45-1.39
		c0.4-0.36,0.83-0.69,1.28-0.99c0.43,0.19,0.9,0.28,1.41,0.28c0.73,0,1.35-0.29,1.78-0.85c0.13-0.15,0.23-0.35,0.33-0.6
		c0.11-0.26,0.16-0.5,0.17-0.74c0-0.32-0.13-0.64-0.39-0.99c-0.05-0.06-0.09-0.13-0.13-0.19c0.54-0.48,1.06-0.97,1.55-1.47
		c0.57-0.58,1.17-1.17,1.74-1.72c0.07-0.05,0.18-0.15,0.35-0.3l0.48-0.41c0.18-0.15,0.34-0.29,0.48-0.42
		c0.17-0.16,0.27-0.26,0.29-0.29c0.11-0.14,0.18-0.27,0.21-0.42c0.33-0.09,0.61-0.28,0.85-0.58c0.15-0.19,0.27-0.39,0.35-0.6
		c0.03-0.08,0.07-0.16,0.1-0.24l0.4,0.07l0.2-0.41c0.18-0.39,0.37-0.77,0.57-1.17c0.2-0.39,0.4-0.76,0.63-1.15
		c0.08-0.16,0.19-0.33,0.3-0.48c0.2-0.26,0.28-0.42,0.4-0.68c0.05-0.14,0.06-0.28,0.04-0.41c0.07-0.06,0.13-0.13,0.19-0.2
		c0.26-0.35,0.47-0.78,0.59-1.28c0.09-0.39,0.2-0.76,0.33-1.09l0.03-0.28c-0.04-0.26-0.08-0.54-0.13-0.83
		c-0.05-0.32-0.13-0.63-0.24-0.95c-0.11-0.33-0.25-0.64-0.42-0.92c-0.19-0.31-0.44-0.59-0.74-0.82c-0.39-0.29-0.81-0.52-1.26-0.7
		c-0.39-0.16-0.77-0.31-1.14-0.47l-0.2-0.09l-0.21,0.06c-0.16,0.04-0.29,0.08-0.29,0.1l-0.44-0.31l-0.33,0.16
		c-0.11,0.05-0.21,0.06-0.33,0.04c-0.22-0.04-0.43-0.1-0.64-0.17l-0.16-0.06l-0.16,0.03c-0.49,0.09-1,0.14-1.51,0.16
		c-0.54,0.02-1.07,0.04-1.6,0.06c-0.54,0.02-1.07,0.04-1.59,0.06c-0.46,0.02-0.91,0.07-1.36,0.14c-0.08-0.04-0.15-0.07-0.22-0.09
		l-0.03-0.19l-0.63,0.13c-0.5,0.1-0.97,0.18-1.43,0.25c-0.37,0.05-0.76,0.01-1.18-0.13l-0.42-0.04l-0.25,0.17
		c-0.09,0.02-0.2,0.04-0.16,0.05c-0.35-0.04-0.71-0.1-1.07-0.17c-0.37-0.07-0.74-0.16-1.11-0.27l-0.23-0.06l-0.21,0.11
		c-0.16,0.08-0.32,0.13-0.48,0.13c-0.2,0.01-0.4,0-0.59-0.03c-0.22-0.03-0.44-0.08-0.67-0.13c-0.27-0.06-0.54-0.1-0.86-0.13
		c-0.12,0-0.26,0.01-0.42,0.03l-0.4,0.05c-0.08,0.01-0.15,0.02-0.18,0.03l-0.68-0.52l-0.33,0.64c-0.39,0.77-0.99,1.44-1.06,2.32
		l0,0.54l0.53,0.1c0.06,0.03,0.11,0.07,0.17,0.11c0.22,0.16,0.43,0.34,0.63,0.53l1.03,0.98l0.41-0.31c0.14-0.1,0.27-0.18,0.42-0.25
		c0.07-0.03,0.14-0.06,0.21-0.09c0.11,0.06,0.21,0.09,0.31,0.1l0.04,0.24l0.62-0.11c0.62-0.12,1.25-0.16,1.86-0.14
		c0.67,0.03,1.34,0.05,2.04,0.07l0.66-0.01c0.25,0,0.5-0.02,0.71-0.05l0.47-0.04l0.28,0.53l0.57-0.45c0.19-0.15,0.31-0.15,0.36-0.14
		c0.28,0.01,0.54-0.06,0.79-0.19c0.16,0.05,0.32,0.08,0.47,0.09c0.25,0.02,0.5-0.01,0.74-0.08c0.21-0.06,0.41-0.13,0.61-0.21
		c0.06-0.03,0.12-0.05,0.19-0.07l0.34,0.26l0.19,0.01c0.63,0.03,1.28,0,1.92-0.09c0.58-0.09,1.16-0.14,1.73-0.17
		c0.54-0.03,1.08,0.01,1.61,0.1c0.48,0.09,0.95,0.3,1.41,0.65c0.05,0.04,0.09,0.07,0.14,0.11c-0.09,0.34-0.12,0.68-0.09,1.04
		c0.02,0.31-0.02,0.59-0.16,0.89c-0.1,0.27-0.24,0.54-0.41,0.81l-0.55,0.88c-0.18,0.3-0.36,0.6-0.52,0.91
		c-0.14,0.27-0.26,0.54-0.36,0.81c-0.65,0.49-1.28,1.08-1.9,1.75c-0.64,0.7-1.29,1.4-1.94,2.11c-0.64,0.69-1.3,1.32-1.97,1.89
		c-0.57,0.48-1.19,0.84-1.84,1.07c-0.22-0.08-0.45-0.12-0.68-0.14l-0.73-0.06c-0.22-0.02-0.44-0.05-0.65-0.09
		c-0.13-0.03-0.27-0.09-0.4-0.19c-0.03-0.02-0.09-0.08-0.17-0.18l-0.28-0.34l-0.42,0.16c-0.1,0.04-0.26,0.07-0.56-0.04
		c-0.32-0.13-0.58-0.27-0.78-0.41l-0.44-0.53l-0.47,0.22c-0.07,0.03-0.11,0.03-0.15,0.02c-0.16-0.04-0.31-0.09-0.47-0.16
		c-0.22-0.1-0.44-0.17-0.66-0.23c-0.18-0.05-0.35-0.06-0.53-0.04c-0.01-0.01-0.02-0.02-0.03-0.03c-0.38-0.28-0.8-0.46-1.25-0.52
		c-0.24-0.03-0.44-0.11-0.68-0.32l-0.3-0.55l-0.55,0.3c-0.08-0.01-0.16-0.03-0.26-0.07l-0.45-0.15c-0.15-0.04-0.3-0.07-0.44-0.07
		c-0.54-0.32-1.12-0.57-1.72-0.76c-0.63-0.2-1.26-0.38-1.89-0.55c-0.6-0.16-1.2-0.34-1.78-0.56c-0.54-0.2-1.06-0.48-1.53-0.83
		l-0.38-0.32l-0.37,0.35c-0.08,0.01-0.17,0.02-0.27,0.02c-0.15,0-0.3,0.02-0.45,0.04c-0.21,0.04-0.41,0.13-0.61,0.29l-0.2,0.15
		l-0.03,0.24c-0.02,0.17-0.05,0.35-0.11,0.51c-0.08,0.24-0.13,0.48-0.15,0.74c-0.03,0.28-0.01,0.55,0.05,0.81
		c0.08,0.31,0.27,0.6,0.56,0.86l0.19,0.16l0.25-0.02c0.14-0.01,0.27,0.01,0.4,0.06c0.19,0.07,0.37,0.15,0.55,0.24
		c0.22,0.11,0.44,0.22,0.67,0.31c0.21,0.09,0.44,0.15,0.66,0.18c0.07,0.06,0.14,0.12,0.22,0.19c0.18,0.13,0.37,0.23,0.56,0.29
		c0.14,0.05,0.29,0.06,0.44,0.06c0.3,0.22,0.65,0.39,1.06,0.53c0.37,0.12,0.72,0.21,1.05,0.26c0.08,0.08,0.16,0.16,0.27,0.24
		c0.26,0.2,0.59,0.32,0.95,0.37c0.23,0.03,0.46,0.05,0.68,0.05c0.54,0.28,1.09,0.52,1.66,0.72c0.61,0.21,1.22,0.4,1.85,0.55
		l0.7,0.16c0.21,0.05,0.4,0.1,0.61,0.18c0.23,0.07,0.45,0.17,0.65,0.28c0.27,0.15,0.57,0.28,0.84,0.36c0.52,0.2,1.06,0.39,1.6,0.55
		c0.27,0.08,0.55,0.17,0.82,0.27c-0.22,0.28-0.47,0.57-0.76,0.84c-0.26,0.26-0.53,0.44-0.83,0.58l-0.94,1.1
		c-0.7,0.36-1.35,0.81-1.93,1.34c-0.5,0.46-1.02,0.89-1.55,1.29c-0.93-0.12-1.85-0.3-2.75-0.56c-1.01-0.29-2.02-0.57-3.04-0.84
		c-0.53-0.13-1.05-0.25-1.56-0.35c-0.44-0.08-0.87-0.17-1.29-0.26c-0.06-0.09-0.14-0.19-0.28-0.29l-0.25-0.19l-0.3,0.09
		c-0.06,0.02-0.12,0.02-0.19,0.01c-0.15-0.03-0.3-0.07-0.46-0.11c-0.19-0.05-0.38-0.1-0.56-0.14c-0.17-0.03-0.33-0.05-0.49-0.05
		c-0.38-0.2-0.77-0.34-1.17-0.43c-0.41-0.1-0.83-0.18-1.25-0.26c-0.4-0.07-0.79-0.15-1.18-0.24c-0.34-0.08-0.65-0.21-0.95-0.39
		l-0.23-0.14l-0.26,0.08c-0.14,0.04-0.28,0.04-0.43,0c-0.23-0.06-0.47-0.14-0.71-0.24c-0.29-0.12-0.57-0.22-0.86-0.31
		c-0.28-0.09-0.55-0.12-0.82-0.11c-0.22-0.12-0.44-0.21-0.68-0.28c-0.27-0.08-0.54-0.14-0.81-0.19c-0.23-0.04-0.46-0.1-0.69-0.16
		c-0.15-0.04-0.29-0.09-0.44-0.15c-0.08-0.14-0.18-0.27-0.3-0.38l-1.18-1.17l-0.11,0.65c-0.37-0.26-0.7-0.18-0.84-0.12l-0.2,0.13
		c-0.12,0.11-0.23,0.24-0.35,0.37c-0.12,0.13-0.23,0.27-0.34,0.41l0,0c-0.06,0.08-0.13,0.18-0.2,0.29
		c-0.07,0.11-0.13,0.22-0.18,0.32l-0.16,0.43l0.44,0.29c-0.05,0.23-0.1,0.46-0.13,0.7l-0.05,0.34l0.29,0.21
		c0.13,0.1,0.24,0.2,0.34,0.32c0.14,0.16,0.28,0.32,0.43,0.48l0.17,0.19l0.26,0.01c0.62,0.02,1.22,0.11,1.79,0.26
		c0.56,0.15,1.12,0.4,1.68,0.73l0.46,0.26l0.22-0.27C60.96,228.32,61.24,228.39,61.54,228.37z"/>
	<path class="st0" d="M52.11,210.66c0.17,0.15,0.34,0.28,0.52,0.41c0.16,0.11,0.33,0.2,0.49,0.24c0.03,0.11,0.09,0.22,0.16,0.32
		l0.1,0.14l0.16,0.07c0.65,0.28,1.25,0.63,1.8,1.04c0.58,0.43,1.19,0.82,1.84,1.13c0.13,0.18,0.27,0.32,0.43,0.43
		c0.15,0.1,0.31,0.2,0.48,0.29c0.13,0.07,0.25,0.14,0.36,0.22c0.07,0.05,0.14,0.12,0.25,0.27l0.08,0.26l0.25,0.11
		c0.53,0.23,1.05,0.51,1.53,0.83c0.52,0.34,1.05,0.67,1.58,0.99l0.24,0.15l0.27-0.09c0.15-0.05,0.3-0.11,0.53-0.2l0.6,0.11l0.1-0.58
		c0.03-0.18,0.1-0.35,0.23-0.5c0.22-0.27,0.39-0.55,0.51-0.85l0.04-0.27c-0.02-0.25-0.13-0.5-0.31-0.75
		c-0.22-0.31-0.5-0.53-0.83-0.67l-0.56-0.23c-0.43-0.44-0.89-0.79-1.36-1.03c-0.42-0.21-0.88-0.41-1.38-0.59
		c-0.04-0.06-0.09-0.14-0.15-0.23c-0.19-0.29-0.42-0.43-0.61-0.49c-0.2-0.1-0.43-0.11-0.63-0.04l-0.23-0.19
		c-0.14-0.09-0.31-0.16-0.6-0.26c-0.15-0.12-0.28-0.24-0.39-0.36c-0.17-0.18-0.38-0.34-0.58-0.44c-0.4-0.26-0.8-0.51-1.2-0.75
		c-0.32-0.19-0.61-0.45-0.84-0.78l-0.27-0.37l-0.23-0.05c-0.26-0.06-0.5-0.18-0.73-0.37c-0.12-0.1-0.23-0.19-0.34-0.28
		c0.14-0.13,0.29-0.25,0.44-0.36c0.33-0.25,0.66-0.5,1-0.73c0.72-0.49,1.47-0.94,2.24-1.36c0.79-0.43,1.58-0.86,2.39-1.3
		c0.38-0.21,0.74-0.43,1.09-0.67c0.32-0.22,0.67-0.43,1.03-0.63c0.16-0.09,0.35-0.18,0.56-0.27c0.25-0.11,0.47-0.21,0.65-0.31
		l2.43-1.26c0.12,0,0.25-0.03,0.36-0.09c0.2,0,0.39,0.02,0.56,0.07c0.32,0.08,0.82,0.1,1.37-0.27c0.46-0.31,0.72-0.67,0.8-1.07
		c0.02-0.13,0.08-0.28,0.17-0.44c0.46-0.25,0.93-0.54,1.41-0.85c0.5-0.33,1.01-0.65,1.53-0.95c0.51-0.3,1.03-0.58,1.55-0.84
		c0.5-0.24,1.02-0.43,1.52-0.55c0.38-0.08,0.73-0.2,1.05-0.34c0.3-0.14,0.59-0.31,0.88-0.5c0.2-0.13,0.39-0.28,0.59-0.43
		c0.19-0.15,0.39-0.32,0.64-0.57c0.07-0.09,0.17-0.18,0.25-0.25c0.18-0.02,0.35-0.09,0.51-0.2l0.26-0.22l0.06-0.19
		c0.11-0.36,0.17-0.66,0.18-0.92l0.05-1l-0.12-0.17c-0.16-0.22-0.38-0.35-0.65-0.36l0.23-0.44l-0.69-0.2
		c-0.2-0.06-0.38-0.13-0.54-0.21c-0.2-0.1-0.4-0.19-0.61-0.28l-0.24-0.11l-0.24,0.1c-0.2,0.08-0.39,0.18-0.56,0.3l-0.39,0.26
		c-0.18,0.12-0.34,0.24-0.49,0.35c-0.12,0.09-0.25,0.19-0.39,0.3c-0.12,0.05-0.24,0.1-0.36,0.15l-0.63,0.26l-0.1,0.18
		c-0.03,0.06-0.12,0.17-0.36,0.33l-0.39,0.26c-0.12,0.08-0.23,0.17-0.33,0.27c-0.41,0.13-0.82,0.32-1.24,0.56
		c-0.43,0.25-0.86,0.5-1.29,0.75c-0.41,0.25-0.82,0.47-1.23,0.68c-0.19,0.1-0.38,0.18-0.56,0.24c-0.08-0.18-0.17-0.35-0.29-0.5
		c-0.06-0.09-0.12-0.16-0.18-0.23c0-0.13,0-0.25-0.01-0.37c-0.01-0.13,0-0.27,0.02-0.39l0.18-1.02l-0.61,0.22
		c-0.05-0.37-0.12-0.73-0.2-1.09l-0.33-1.18c-0.12-0.38-0.22-0.76-0.32-1.15c-0.09-0.36-0.16-0.73-0.19-1.1l-0.02-0.18l-0.11-0.14
		c-0.09-0.11-0.14-0.24-0.16-0.39c-0.02-0.26-0.04-0.49-0.04-0.69c0-0.28-0.06-0.59-0.17-0.91c-0.09-0.26-0.2-0.53-0.31-0.8
		c-0.1-0.25-0.2-0.5-0.28-0.75c-0.06-0.2-0.09-0.38-0.08-0.57l0.01-0.21l-0.22-0.31c-0.14-0.19-0.25-0.43-0.34-0.71
		c-0.1-0.33-0.19-0.64-0.26-0.95c-0.07-0.31-0.13-0.6-0.17-0.86c-0.06-0.36-0.15-0.62-0.29-0.81l-0.67-0.93
		c0.03-0.27,0-0.51-0.08-0.73c-0.08-0.23-0.2-0.46-0.34-0.68c-0.1-0.16-0.19-0.31-0.27-0.47c-0.05-0.11-0.08-0.23-0.08-0.37l0-0.21
		l-0.14-0.16c-0.32-0.38-0.58-0.78-0.79-1.19c-0.24-0.47-0.51-0.93-0.81-1.38l-0.15-0.16c-0.37-0.26-0.75-0.54-1.15-0.85
		c-0.37-0.29-0.77-0.51-1.17-0.66c-0.06-0.12-0.13-0.24-0.21-0.35c-0.3-0.41-0.68-0.67-1.15-0.76c-0.45-0.09-0.91-0.01-1.37,0.23
		l-0.14,0.08l-0.08,0.14c-0.13,0.21-0.24,0.43-0.34,0.66c-0.05,0.11-0.11,0.19-0.25,0.28l-0.5,0.33l0.35,0.49
		c0.41,0.57,0.88,1.07,1.4,1.48c0.43,0.34,0.9,0.66,1.39,0.97c0.07,0.34,0.16,0.66,0.27,0.96c0.15,0.38,0.36,0.77,0.63,1.14
		c0.07,0.1,0.15,0.2,0.24,0.3c0.01,0.01,0.02,0.03,0.03,0.04c-0.1,0.22-0.11,0.46-0.04,0.69l0.09,0.2l0.16,0.12
		c0,0,0.04,0.03,0.11,0.13c0.18,0.25,0.3,0.52,0.36,0.81c0.09,0.46,0.28,0.88,0.55,1.26l0.03,0.04c0,0.05,0.01,0.11,0.02,0.16
		c0.01,0.04,0.02,0.07,0.03,0.1L58.86,181l0.67,0.49l0.1,0.14c0.15,0.21,0.28,0.46,0.37,0.74c0.09,0.25,0.12,0.48,0.09,0.68
		l0.03,0.27c0.19,0.52,0.38,1.06,0.56,1.63c0.16,0.5,0.22,0.99,0.17,1.46l-0.02,0.22l0.42,0.58c0.03,0.49,0.11,0.98,0.25,1.47
		c0.14,0.52,0.3,1.04,0.46,1.57c0.16,0.5,0.3,0.99,0.4,1.48c0.1,0.44,0.12,0.88,0.07,1.3l-0.04,0.32l0.26,0.21
		c0.01,0.01,0.05,0.04,0.09,0.15c0.04,0.09,0.06,0.19,0.06,0.29c0,0.05,0,0.11-0.02,0.17c-0.21-0.11-0.41-0.23-0.62-0.35
		c-0.4-0.24-0.83-0.4-1.29-0.49c-0.66-0.48-1.36-0.89-2.1-1.2c-0.7-0.29-1.39-0.65-2.06-1.06l-0.14-0.09l-0.17,0
		c-0.33-0.01-0.62-0.07-0.89-0.2c-0.36-0.17-0.73-0.32-1.14-0.47l-0.72-0.24c-0.2-0.07-0.28-0.13-0.28-0.09l-0.24-0.82l-0.78,0.53
		c-0.06,0-0.12-0.02-0.18-0.05l-0.41-0.19c-0.13-0.06-0.26-0.1-0.39-0.11l-0.35-0.48l-0.34,0.02c-0.2,0.01-0.37,0.04-0.53,0.09
		c-0.41-0.22-0.83-0.38-1.25-0.47c-0.49-0.1-1-0.16-1.51-0.17c-0.48-0.01-0.96,0-1.45,0.01c-0.44,0.01-0.88-0.02-1.31-0.1
		l-0.21-0.04l-0.19,0.1c-0.25,0.14-0.48,0.21-0.67,0.23c-0.27,0.02-0.58,0.03-0.92,0.03l-0.21,0l-0.16,0.13
		c-0.15,0.11-0.31,0.2-0.5,0.25c-0.32,0.09-0.62,0.23-0.89,0.41c-0.31,0.21-0.53,0.47-0.66,0.78c-0.03,0.08-0.08,0.14-0.13,0.19
		l-0.47,0.29l0.02,0.32c0,0.07-0.01,0.14-0.05,0.22c-0.07,0.13-0.14,0.25-0.23,0.37l-0.11,0.15l-0.01,0.18
		c-0.02,0.77,0.04,1.55,0.17,2.32c0.14,0.78,0.36,1.55,0.65,2.3c0.28,0.74,0.62,1.46,1,2.16c0.38,0.69,0.79,1.35,1.23,1.95
		c0.19,0.27,0.39,0.53,0.6,0.78c0.17,0.21,0.34,0.41,0.52,0.61c0.04,0.23,0.13,0.44,0.27,0.63c0.15,0.21,0.34,0.37,0.56,0.49
		c0.66,0.91,1.39,1.77,2.16,2.57c0.8,0.82,1.62,1.64,2.45,2.45l0.11,0.11l0.15,0.04c0.1,0.03,0.19,0.04,0.28,0.05
		c0.03,0.07,0.07,0.14,0.12,0.21c0.24,0.33,0.53,0.59,0.87,0.78c0.19,0.1,0.34,0.24,0.52,0.46l0,0.87l0.85-0.27
		C51.86,210.47,51.99,210.56,52.11,210.66z M47.89,202.24l-0.94-1.11c-0.3-0.36-0.59-0.73-0.86-1.11c-0.14-0.2-0.28-0.4-0.4-0.6
		c-0.13-0.2-0.25-0.42-0.35-0.63c-0.04-0.09-0.09-0.18-0.13-0.29c-0.05-0.12-0.11-0.24-0.21-0.44l-0.36-0.5
		c-0.12-0.17-0.22-0.34-0.31-0.53c-0.1-0.22-0.2-0.44-0.28-0.63c-0.17-0.44-0.31-0.89-0.42-1.35c-0.11-0.44-0.23-0.88-0.37-1.31
		c0.04-0.17,0.06-0.34,0.05-0.51c0-0.15,0-0.3,0.01-0.45c0-0.1,0.02-0.19,0.06-0.27c0,0,0.03-0.06,0.15-0.14
		c0.17-0.11,0.35-0.18,0.55-0.21c0.27-0.04,0.55-0.06,0.84-0.07c0.3-0.01,0.61-0.01,0.91-0.01c0.31,0.01,0.61-0.03,0.88-0.1
		c1.08,0.25,2.14,0.55,3.17,0.89c1.08,0.36,2.2,0.69,3.34,0.97c0.16,0.11,0.32,0.19,0.49,0.26l0.18,0.25l0.31,0.01
		c0.17,0,0.34,0.04,0.5,0.11c0.25,0.11,0.5,0.17,0.77,0.2c0.5,0.35,1.02,0.65,1.56,0.91c0.56,0.27,1.13,0.54,1.7,0.81
		c0.55,0.26,1.09,0.54,1.62,0.84c0.28,0.16,0.54,0.33,0.8,0.52c-0.81,0.5-1.63,0.97-2.45,1.41c-1.07,0.58-2.15,1.16-3.23,1.76
		c-0.38,0.21-0.75,0.43-1.11,0.64c-0.34,0.21-0.7,0.42-1.11,0.65l-0.44,0.3c-0.14,0.09-0.26,0.16-0.41,0.22
		c-0.07,0.03-0.15,0.06-0.24,0.09c-0.14,0.04-0.28,0.09-0.39,0.14c-0.29,0.12-0.56,0.26-0.83,0.41c-0.25,0.15-0.5,0.3-0.74,0.47
		l-0.28,0.19c-0.02-0.01-0.04-0.03-0.06-0.04c-0.15-0.09-0.3-0.19-0.46-0.3c-0.17-0.12-0.33-0.23-0.49-0.33
		c-0.11-0.07-0.2-0.13-0.25-0.18c-0.11-0.11-0.22-0.23-0.33-0.38C48.17,202.59,48.03,202.41,47.89,202.24z"/>
	<path class="st0" d="M27.11,159.82c0.4,0.07,0.81,0.06,1.21-0.02l0.25-0.05c0.12-0.02,0.24-0.06,0.35-0.12l0.14-0.07l0.09-0.13
		c0,0,0,0,0,0c0.17-0.25,0.45-0.4,0.85-0.48c0.37-0.08,0.75-0.11,1.13-0.09c0.47,0.02,0.95-0.02,1.42-0.11
		c0.1-0.02,0.19-0.05,0.29-0.08c0.02-0.01,0.04-0.01,0.06-0.02c0.22,0.02,0.43,0.03,0.64,0.04c0.18,0,0.36,0.02,0.54,0.06l0.29,0
		c0.28-0.07,0.6-0.13,0.96-0.17c0.27-0.03,0.49,0,0.66,0.09l0.31,0.16l0.29-0.18c0.08-0.05,0.16-0.08,0.25-0.1
		c0.21-0.04,0.42-0.05,0.62-0.02c0.28,0.04,0.57,0.04,0.87,0.01c0.45,0.16,0.92,0.27,1.4,0.32c0.49,0.05,0.99,0.1,1.5,0.13
		c0.49,0.03,0.98,0.07,1.47,0.11c0.45,0.04,0.88,0.12,1.29,0.24l0.17,0.05l0.17-0.05c0.2-0.05,0.39-0.07,0.57-0.05
		c0.33,0.04,0.67,0.02,1.01-0.05c0.07-0.01,0.13-0.03,0.22-0.06c0.31,0.08,0.54,0.13,0.71,0.15c0.26,0.04,0.6,0.02,1.07-0.08
		c0.53-0.11,1.04-0.29,1.51-0.54c0.37-0.2,0.78-0.35,1.2-0.46l0.34-0.08l0.09-0.33c0.03-0.11,0.09-0.21,0.17-0.3
		c0.26-0.3,0.37-0.67,0.29-1.05c-0.07-0.29-0.2-0.55-0.39-0.77c-0.07-0.08-0.11-0.16-0.14-0.32l0.06-0.66l-0.5-0.13
		c-0.11-0.03-0.2-0.07-0.27-0.14c-0.15-0.13-0.3-0.26-0.44-0.39c-0.19-0.16-0.41-0.29-0.64-0.39c-0.3-0.13-0.65-0.15-1.05-0.07
		l-0.49,0.1l-0.13,0.2c-0.08,0.12-0.14,0.28-0.2,0.51c-0.03,0.13-0.07,0.26-0.11,0.39c-0.02,0.08-0.05,0.15-0.08,0.22
		c-0.49,0.09-0.99,0.14-1.49,0.14c-0.57,0.01-1.14-0.01-1.71-0.06c-0.58-0.05-1.16-0.11-1.75-0.19c-0.6-0.08-1.2-0.14-1.8-0.19
		l-1.99-0.16c-0.17-0.01-0.35-0.01-0.54,0c-0.16,0.01-0.3,0.01-0.42,0c-0.12-0.01-0.25-0.02-0.37-0.04
		c-0.15-0.02-0.3-0.04-0.47-0.05c-0.54-0.03-1.07-0.03-1.6-0.02c-0.8,0.01-1.58,0.04-2.34,0.1c-0.71,0.06-1.45,0.07-2.18,0.03
		l-0.85,0.21c-0.34,0.07-0.7,0.12-1.08,0.14c-0.44,0.03-0.86,0.08-1.27,0.17c-0.38,0.08-0.73,0.19-1.03,0.34l-0.14,0.07L26,155.67
		c-0.22,0.33-0.45,0.69-0.69,1.08c-0.32,0.52-0.42,1.07-0.28,1.65c0.06,0.28,0.17,0.53,0.33,0.74c0.12,0.17,0.25,0.33,0.39,0.51
		l0.25,0.3l0.38-0.1C26.63,159.79,26.87,159.78,27.11,159.82z"/>
	<path class="st0" d="M59.44,150.91l-0.15-0.23l-0.27-0.05c-0.13-0.02-0.26-0.03-0.38-0.04c-0.13,0-0.26,0.01-0.39,0.04l0,0
		c-0.29,0.06-0.53,0.19-0.72,0.4c-0.13,0.14-0.25,0.29-0.37,0.46c-0.11,0.17-0.21,0.34-0.29,0.52c-0.06,0.13-0.12,0.24-0.19,0.35
		c-0.11,0.17-0.24,0.34-0.39,0.51c-0.29,0.32-0.38,0.72-0.28,1.15c0.04,0.17,0.08,0.31,0.14,0.43l0.31,0.44l0.48-0.1
		c0.13,0.08,0.26,0.18,0.39,0.3c0.21,0.18,0.46,0.33,0.75,0.44c0.34,0.13,0.74,0.15,1.23,0.05c0.54-0.11,1-0.36,1.38-0.73
		c0.11-0.1,0.2-0.22,0.28-0.33c0.22-0.32,0.36-0.67,0.4-1.06l0.02-0.15l-0.06-0.14c-0.23-0.51-0.59-0.73-0.86-0.82
		c-0.13-0.05-0.26-0.1-0.38-0.16c-0.09-0.17-0.17-0.33-0.24-0.5C59.75,151.43,59.61,151.18,59.44,150.91z"/>
	<path class="st0" d="M55.02,142.03c0.18,0.21,0.41,0.4,0.67,0.54c0.31,0.18,0.71,0.25,1.22,0.22c0.55-0.03,1.05-0.21,1.48-0.53
		c0.22-0.16,0.4-0.34,0.54-0.55c0.16-0.22,0.27-0.46,0.34-0.73l0.04-0.15l-0.04-0.15c-0.15-0.54-0.48-0.8-0.73-0.94
		c-0.12-0.06-0.24-0.13-0.35-0.21c-0.06-0.18-0.11-0.35-0.16-0.53c-0.07-0.27-0.17-0.55-0.3-0.83l-0.11-0.24l-0.26-0.08
		c-0.13-0.04-0.25-0.07-0.37-0.09c-0.13-0.02-0.27-0.03-0.4-0.02c-0.29,0.02-0.56,0.12-0.78,0.29c-0.15,0.12-0.29,0.25-0.43,0.4
		c-0.14,0.15-0.26,0.31-0.37,0.48c-0.08,0.12-0.16,0.22-0.24,0.32c-0.14,0.16-0.29,0.3-0.46,0.44c-0.33,0.28-0.49,0.66-0.45,1.1
		c0.01,0.17,0.04,0.32,0.07,0.44l0.24,0.48l0.49-0.03C54.79,141.79,54.91,141.9,55.02,142.03z"/>
	<path class="st0" d="M24.36,142.43c0.39,0.12,0.8,0.17,1.21,0.15l0.26-0.01c0.13-0.01,0.25-0.03,0.37-0.07l0.25-0.16
		c0.21-0.22,0.51-0.34,0.91-0.36c0.38-0.02,0.76,0,1.13,0.07c0.46,0.09,0.94,0.11,1.43,0.09c0.1-0.01,0.2-0.02,0.3-0.04
		c0.02,0,0.04-0.01,0.06-0.01c0.22,0.05,0.43,0.1,0.63,0.13c0.18,0.03,0.35,0.07,0.53,0.14l0.29,0.03c0.29-0.03,0.62-0.04,0.98-0.03
		c0.27,0.01,0.49,0.07,0.64,0.18l0.29,0.21l0.32-0.14c0.08-0.04,0.17-0.06,0.27-0.06c0.21-0.01,0.42,0.01,0.62,0.07
		c0.27,0.08,0.56,0.12,0.86,0.14c0.42,0.22,0.87,0.39,1.34,0.51c0.48,0.12,0.97,0.23,1.47,0.34c0.48,0.1,0.96,0.2,1.44,0.31
		c0.44,0.1,0.86,0.24,1.24,0.42l0.16,0.07l0.17-0.02c0.21-0.03,0.4-0.01,0.58,0.03c0.32,0.08,0.66,0.12,1,0.1
		c0.07,0,0.13-0.01,0.23-0.03c0.29,0.12,0.52,0.2,0.67,0.25c0.25,0.08,0.59,0.1,1.07,0.07c0.55-0.03,1.08-0.14,1.58-0.32
		c0.4-0.15,0.82-0.24,1.25-0.28l0.36-0.03l0.14-0.32c0.05-0.1,0.11-0.19,0.21-0.27c0.31-0.26,0.47-0.61,0.44-0.99
		c-0.02-0.3-0.11-0.58-0.27-0.83c-0.05-0.09-0.08-0.17-0.09-0.33l0.17-0.64l-0.49-0.2c-0.1-0.04-0.18-0.1-0.24-0.17
		c-0.13-0.15-0.26-0.3-0.38-0.45c-0.16-0.18-0.36-0.35-0.58-0.48c-0.27-0.16-0.62-0.24-1.03-0.21l-0.5,0.03l-0.16,0.18
		c-0.1,0.11-0.19,0.26-0.27,0.47c-0.05,0.13-0.1,0.25-0.16,0.37c-0.04,0.07-0.07,0.14-0.12,0.2c-0.5,0.02-1,0-1.5-0.07
		c-0.57-0.07-1.13-0.17-1.69-0.3c-0.57-0.13-1.14-0.27-1.7-0.43c-0.59-0.16-1.17-0.31-1.76-0.45l-1.95-0.44
		c-0.17-0.03-0.34-0.05-0.53-0.08c-0.15-0.02-0.3-0.04-0.42-0.06c-0.12-0.03-0.24-0.05-0.36-0.09c-0.14-0.04-0.29-0.08-0.46-0.11
		c-0.53-0.1-1.06-0.18-1.58-0.25c-0.79-0.1-1.57-0.18-2.33-0.23c-0.72-0.05-1.45-0.14-2.16-0.27l-0.18-0.03l-0.17,0.07
		c-0.05,0.02-0.1,0.03-0.14,0.03l-0.39,0.02c-0.35,0.02-0.71,0.02-1.09-0.01c-0.43-0.03-0.86-0.04-1.28-0.01
		c-0.38,0.02-0.74,0.09-1.07,0.19l-0.15,0.05l-0.11,0.12c-0.26,0.29-0.54,0.62-0.84,0.97c-0.39,0.46-0.57,1-0.53,1.59
		c0.02,0.28,0.09,0.54,0.22,0.78c0.09,0.18,0.2,0.37,0.31,0.56l0.2,0.33l0.39-0.04C23.88,142.33,24.12,142.35,24.36,142.43z"/>
</g>
</svg>
